<!--?xml version="1.0" encoding="utf-8"?-->
<!-- Generator: Adobe Illustrator 22.1.0, SVG Export Plug-In . SVG Version: 6.00 Build 0)  -->
<svg version="1.1" id="_x37_" xmlns="http://www.w3.org/2000/svg" xmlns:xlink="http://www.w3.org/1999/xlink" x="0px" y="0px" viewBox="0 0 800 634.763" style="width: 50px;" xml:space="preserve">
<style type="text/css">
	.st0{fill:#040000;}
</style>
<g>
	<path class="st0" d="M210.987,226.544c-0.606,0.607-5.471,2.428-6.89,2.023c-1.416-0.405-4.052-3.033-4.659-1.416
		c-0.61,1.617-0.813,3.648-0.813,3.648s-0.603,1.826-1.213,2.434c-0.611,0.607,0.202,3.841,1.015,4.247
		c0.808,0.411,0.606,5.676,0,6.485c-0.611,0.809-1.824,2.638-1.824,3.242c0,0.608-1.621,3.041-1.824,5.064
		c-0.206,2.031,0,5.475-0.405,6.082c-0.408,0.607-1.216-0.607-0.408,0.607c0.813,1.212,2.027,2.225,1.625,2.84
		c-0.411,0.604,0.198,5.266,1.821,5.87c1.621,0.608-0.409,5.88-2.232,8.511c-1.824,2.635-5.063,7.495-5.67,9.322
		c-0.606,1.829-1.824,6.48-3.243,7.896c-1.419,1.424-2.228,3.656-3.037,4.465c-0.809,0.809-6.685,5.069-8.509,6.081
		c-1.824,1.01-3.648,3.235-4.46,4.245c-0.809,1.021-9.726,6.69-14.182,7.904c-4.457,1.22-16.818,6.082-19.451,8.306
		c-2.633,2.233-4.052,2.233-4.456,3.041c-0.405,0.817-6.688,8.314-8.913,10.133c-2.229,1.822-3.041,4.051-3.243,5.467
		c-0.202,1.424-0.202,4.054-3.445,5.47c-3.243,1.421-5.673,2.434-8.104,4.868c-2.43,2.426-8.509,5.676-13.167,8.103
		c-4.663,2.428-6.891,4.255-8.104,5.273c-1.217,1.013-2.636,0.406-3.445,1.215c-0.813,0.809-2.232,2.023-2.838,2.224
		c-0.606,0.202-2.633,0.202-3.442,1.416c-0.813,1.214-1.014,2.434-2.029,2.434c-1.012,0-3.648-0.403-3.648,0.403
		c0,0.811,0.61,6.286-1.214,6.488c-1.82,0.201-3.647-0.616-3.647-1.424c0-0.809,1.015-2.831,0.202-2.628
		c-0.809,0.202-2.229,1.819-3.244,2.023c-1.011,0.202-3.239,1.018-3.033,2.434c0.198,1.421-2.842,2.837-4.463,1.827
		c-1.618-1.021-1.824-2.643-2.835-3.242c-1.012-0.615-1.416,1.617-1.214,2.627c0.202,1.018-1.011,2.03-2.03,1.018
		c-1.011-1.018-2.834-1.826-3.037-0.604c-0.202,1.212-0.404,6.888-1.011,6.678c-0.61-0.201-3.853-2.028-4.456-2.836
		c-0.61-0.809-2.43,0-2.43,0s1.213,1.219,2.224,1.617c1.016,0.411,3.041,2.232,2.838,3.25c-0.205,1.013-2.434,4.247-3.849,3.64
		c-1.419-0.608-2.026-1.822-2.636-3.033c-0.606-1.214-2.225-1.424-2.023,0c0.199,1.416,0.199,3.64-1.014,3.842
		c-1.216,0.209-2.228,0.615-2.026-0.608c0.203-1.211,1.015-3.033,0.203-3.234c-0.809-0.202-3.446,0.202-4.659,1.819
		c-1.217,1.62-4.46,3.242-6.28,4.263c-1.824,1.01-2.233,1.617-2.434,2.832c-0.203,1.211-5.67,4.051-8.509,5.878
		c-2.835,1.822-4.052,4.449-5.269,5.467c-1.214,1.013-1.42,1.822-2.633,2.436c-1.217,0.608-2.026,1.617-0.405,1.414
		c1.619-0.202,5.266-2.837,6.276-3.242c1.016-0.411,1.626-1.212,1.626-1.212l-0.61-2.232c0,0,1.015-0.406,2.838-1.013
		c1.824-0.605,3.648-2.627,4.862-3.039c1.217-0.405,2.228-0.405,3.044-0.811c0.806-0.411,2.018-0.814,3.236-1.826
		c1.217-1.01,2.636-1.819,3.041-0.608c0.401,1.223,1.824,1.62,0.813,2.638c-1.015,1.018-0.61,2.029-1.824,2.434
		c-1.217,0.403-1.217-0.405-2.029,0.809c-0.809,1.215-1.415,1.617,0,2.023c1.423,0.403,6.031-0.385,7.295-1.415
		c2.229-1.822,3.85-3.447,5.269-4.054c1.42-0.604,2.835-0.814,3.442-1.211c0.61-0.414,0.813-1.625,1.419-2.434
		c0.611-0.809,4.865-4.457,5.876-5.273c1.011-0.809,2.43-1.822,3.445-2.023c1.012-0.201,4.255-1.415,5.673-2.224
		c1.416-0.817,4.659-2.031,6.079-2.232c1.415-0.202,3.445-1.625,4.86-3.243c1.42-1.617,5.673-3.439,7.295-3.849
		c1.622-0.406,2.834-2.031,3.849-3.648c1.012-1.617,2.43-4.255,3.644-4.852c1.22-0.615,2.637,0.596,2.842,2.224
		c0.202,1.617,1.213,4.449,1.824,3.85c0.603-0.615,0.401-2.434,0.809-3.245c0.405-0.809,0.199-3.243,1.015-3.243
		c0.809,0,4.659,0.414,6.074,0.204c1.42-0.204,1.824-0.204,0.611-1.214c-1.217-1.013-1.419-2.638-0.611-3.243
		c0.809-0.607,2.229,1.01,3.648,1.819c1.419,0.809,3.243,1.625,3.648,2.638c0.404,1.018,1.419,5.467,2.025,4.86
		c0.202-1.214,0-2.63,0.607-3.439c0.61-0.816,3.243-2.028,4.457-2.028c1.217,0,2.43,2.028,1.217,2.635
		c-1.217,0.607-1.824,0.201-2.632,0.809c-0.813,0.607-1.42,1.819-0.409,1.819c1.015,0,3.38,0.139,4.529,0.073
		c1.145-0.073,3.309,0.267,3.309,0.94c0,0.68-0.066,1.219-0.474,1.559c-0.405,0.332-1.419,1.481-2.16,1.617
		c-0.744,0.131-1.488,0.882-2.365,0.809c-0.878-0.07-2.095,0.607-1.149,0.746c0.946,0.136,2.835,0.136,3.175,0
		c0.339-0.139,1.686-0.608,2.228-0.34c0.541,0.275,0.541,1.149-0.34,1.892c-0.878,0.746-1.889,0.746-1.957,1.691
		c-0.065,0.939-0.202,2.224-0.675,2.298c-0.474,0.062-0.541-0.809-1.214-0.476c-0.675,0.338-1.552,0.136-2.162,0.879
		c-0.607,0.738-2.095,1.489-1.553,2.096c0.542,0.608,1.553,2.094,1.69,3.104c0.134,1.013-0.068,1.149-0.137,1.691
		c-0.069,0.534,0.405,0.809,0.405,1.215c0,0.403,0.206,2.426-0.474,2.831c-0.675,0.403-1.55,0.744-2.159,1.084
		c-0.607,0.338-1.214,0.743-0.809,1.416c0.405,0.678,1.419,2.093,1.622,2.976c0.198,0.879,0.472,2.295,0.198,3.041
		c-0.267,0.744-1.01,0.744-0.267,0.744c0.74,0,2.766-1.489,3.24-1.56c0.472-0.065,1.217-0.131,1.621-0.809
		c0.408-0.681,1.083-2.022,1.282-2.363c0.206-0.34,1.218-1.278,1.962-1.076c0.744,0.202,0.809,1.343,0.408,2.023
		c-0.408,0.678-1.221,2.499-1.693,3.177c-0.47,0.673-1.076,1.416-0.47,1.683c0.61,0.267,1.69,0.607,2.091,1.149
		c0.409,0.542,0.813,1.56-0.065,1.892c-0.881,0.34-1.621,0.809-1.556,1.288c0.072,0.468,0.34,1.343-0.202,1.413
		c-0.538,0.074-0.607-0.07-1.213-0.128c-0.607-0.074-3.175-0.139-3.713,0.332c-0.541,0.476-0.275,1.351-0.95,1.688
		c-0.671,0.332-0.878-0.403-1.622-0.136c-0.74,0.267-0.942,1.28-1.347,1.957c-0.405,0.678-0.947,2.094-1.489,2.573
		c-0.537,0.468-0.472,1.141,0.137,1.416c0.607,0.272,3.644,0.534,4.32,0.604c0.675,0.074,1.556,0.681,2.164,0.947
		c0.606,0.267,0.743,1.481,1.282,2.361c0.541,0.882,3.514,1.892,4.121,1.965c0.607,0.058,1.755,0.866,2.16-0.074
		c0.408-0.945,0.27-1.753,0.542-2.562c0.271-0.817,1.35-2.434,2.026-2.298c0.675,0.139,1.484,1.683,2.025,2.088
		c0.543,0.403,1.691,0.752,2.702,0.678c1.011-0.07,2.095,0.406,2.903,0.139c0.813-0.267,2.027,0.403,2.163-0.817
		c0.134-1.214,0.267-2.023,0.878-2.023c0.606,0,3.578,0.275,3.578,0.073c0-0.204,1.149-0.405,1.419-1.013
		c0.267-0.615,1.485-1.285,1.958-0.615c0.473,0.681,0.473,1.895,0.877,2.638c0.405,0.736,1.148,0.406,1.622,0.332
		c0.472-0.065,2.026-0.607,2.701-0.607c0.675,0,1.824-0.607,2.362,0.07c0.542,0.681,1.488,1.087,1.827,1.751
		c0.336,0.678,1.686,2.237-0.408,2.036c-2.095-0.209-3.918,1.068-5.876,1.885c-1.957,0.816-3.376,2.232-4.929,3.041
		c-1.553,0.809-1.553,1.617-1.553,2.499c0,0.882,0.947,1.69,0,2.096c-0.945,0.403-1.483,0.872-1.552,1.487
		c-0.069,0.607,0,1.683-0.271,2.356c-0.271,0.677-1.282,2.441-1.012,2.441c0.271,0,2.834-1.424,2.834-1.358c0,0.07,0-0.332,0-0.874
		c0-0.541,0-0.541,0-1.69c0-1.149,0.543-1.215,1.283-0.874c0.744,0.332,0.877,0.939,1.621,0.874c0.744-0.066,0.271,0.34,0.947,0
		c0.675-0.34,1.552,0.065,1.755,0.541c0.202,0.468,0.403,1.149,0.877,1.416c0.474,0.275,2.03,1.149,2.229,1.211
		c0.202,0.074,2.972-1.211,3.514-1.277c0.541-0.066,2.16,0.468,2.701,0.202c0.543-0.267,1.553-0.403,1.686-0.202
		c0.138,0.202-0.606,2.232-1.552,2.298c-0.943,0.066-2.229,0.338-2.229,0.945s0.271,2.97,1.149,3.106
		c0.877,0.131,2.701,1.083,3.11,1.892c0.401,0.809,0.945,1.617,2.159,1.416c1.213-0.202,2.095-0.406,2.499-0.534
		c0.405-0.144,1.617,0,1.617,0.259c0,0.275-0.74,1.625-1.213,2.096c-0.47,0.476-1.282,0.945-1.08,1.413
		c0.198,0.479,0.133,1.231-0.137,1.563c-0.267,0.332-1.217,0.533-1.416,0.468l-1.285-0.542c-0.134,0.202-0.608,0.809-0.405,1.22
		c0.205,0.405,0.809,0.874,0,1.149c-0.813,0.267-2.229,0.405-2.973,0.479c-0.74,0.057-2.903,0.057-4.051,0.33
		c-1.145,0.275-1.893,1.69-2.701,1.892c-0.809,0.204-1.958,1.083-1.489,2.023c0.472,0.955,1.556,1.892,1.556,2.232
		c0,0,0,1.149,0.134,1.756c0.134,0.608,0.271,2.427,0.271,3.033c0,0.615-0.137,1.69,0.271,1.9c0.405,0.194,0.878,0.468,0.74,0.947
		c-0.133,0.461-0.469,0.67-1.011,0.806c-0.541,0.131-2.499,0.204-2.835,0c-0.34-0.201-0.881,0.204-0.675-0.677
		c0.199-0.882,0.134-2.159-0.206-2.565c-0.336-0.411-0.809-1.69-1.08-0.945c-0.271,0.736-0.47,1.487-0.134,2.023
		c0.336,0.541,0.405,1.146,0.271,1.56c-0.137,0.403-0.607,0.809-1.015,1.076c-0.405,0.267-2.904,0.945-2.904,0.743
		c0-0.202-1.148-0.678-1.011-1.487c0.134-0.809,1.011-1.351,1.011-1.892c0-0.537,0-1.686,0-2.023c0-0.332-1.758-0.476-2.228,0
		c-0.474,0.476-0.271,1.819-1.084,1.957c-0.805,0.136-1.347-0.066-2.366-1.222c-1.01-1.142-1.076-2.225-1.213-2.832
		c-0.134-0.605-0.606-0.736-0.672-1.552c-0.068-0.809,0.809-1.957,0.202-2.7c-0.61-0.746,0.673-2.298,0-2.096
		c-0.675,0.204-1.152,0.882-1.42,1.149c-0.271,0.275-2.361,0.809-3.376,0.405c-1.015-0.405-1.489-1.013-2.298-1.416
		c-0.812-0.406-1.686-1.555-2.701-1.555c-1.011,0-1.416,1.013-2.228,1.013c-0.813,0-1.148,0.673-0.271,0.817
		c0.882,0.128,1.759-0.144,2.365-0.413c0.608-0.267,1.348,0.269,1.688,0.541c0.336,0.275,2.635,2.227,2.834,2.976
		c0.202,0.738,0.069,2.023,0.676,1.887c0.61-0.139,0.945-0.542,1.285-0.608c0.34-0.065,1.824,0.34,1.755,0.874
		c-0.069,0.55-0.069,1.761,0.34,2.093c0.405,0.348,2.163,1.756,2.499,2.225c0.336,0.479,1.282,1.69,1.011,2.24
		c-0.271,0.534-1.351,0.939-1.961,0.468c-0.604-0.468-1.214-0.945-1.751-0.743c-0.542,0.201-1.149,0.743-1.759,0.882
		c-0.607,0.131-1.824,0.131-2.564,0.131c-0.744,0-0.947,0.945-0.813,1.285c0.137,0.333,0.878,1.416,0.474,1.958
		c-0.405,0.541-1.485,1.35-0.946,1.892c0.541,0.542,2.026,1.424,2.701,2.093c0.679,0.673,1.083,1.215,1.014,2.298
		c-0.068,1.076,0.744,1.819,1.686,1.819c0.947,0,0.474-0.403,0.675-1.01c0.207-0.615,0.679-1.351,1.355-1.149
		c0.671,0.202,1.347,0.678,2.091,0.809c0.744,0.139,1.755,0.275,2.365,0.074c0.607-0.204,1.621,0.131,2.632,0.332
		c1.015,0.202,4.323,0.743,4.999,0.607c0.675-0.131,0.267,2.635,0.202,3.444c-0.069,0.816,0.606,1.489,0.405,1.756
		c-0.203,0.275-2.702,0.071-3.377-0.131c-0.675-0.202-0.34-0.945-1.282-0.34c-0.947,0.615-1.148,1.28-1.824,1.28
		c-0.675,0-2.228,0.144-2.835-0.468c-0.61-0.607-1.217-1.628-2.228-1.415c-1.019,0.202-1.896,0.468-1.221,0.872
		c0.679,0.405,2.704,1.083,3.178,1.829c0.47,0.744,0.405,1.827,1.011,2.635c0.607,0.809,0.878,1.141,0.744,1.547
		c-0.137,0.411-0.607,0.476-0.336,1.219c0.267,0.744,0.805,1.215,1.213,1.149c0.405-0.07,1.351-0.476,1.351,0
		c0,0.476-0.472,0.947-1.148,1.416c-0.675,0.476-2.294,0.476-2.835,0.882c-0.542,0.403-1.354,0.468-0.474,0.874
		c0.878,0.411,1.214,0.542,1.282,1.146c0.069,0.607-0.068,1.288-0.472,1.764c-0.405,0.468-0.405,0.607,0,0.939
		c0.404,0.34,0.675,1.01,1.014,0.275c0.336-0.746,0.607-2.225,1.011-2.298c0.405-0.074,1.621,0,1.621,0.809c0,0.809,0,2.434,0,2.975
		c0,0.534,0,1.288,0,1.683c0,0.411-0.336,0.817-1.282,1.018c-0.946,0.204-4.121,0.607-4.594,0.939
		c-0.474,0.34-1.485,1.215-2.229,1.215c-0.743,0-1.755,0.88-1.823-0.066c-0.069-0.945,0.133-2.36-0.474-2.159
		c-0.606,0.202-0.47,1.958-0.809,2.159c-0.339,0.21-3.04,1.489-4.051,0.139c-1.015-1.352-0.813-2.298-1.015-2.363l-1.958-0.275
		c-0.202,0-1.758-0.608-1.823-1.215c-0.068-0.604-1.217-0.67-1.42-0.063c-0.202,0.605-0.202,2.159-0.538,2.562
		c-0.34,0.405-1.827,1.352-1.488,1.886c0.34,0.547,0.474,1.688,0.878,2.303c0.407,0.607,0.812,1.415,0.202,2.088
		c-0.606,0.678-1.485,1.154-1.69,1.422c-0.199,0.269,0.069,1.288-0.065,1.887c-0.134,0.612-1.351,0.476-2.293,1.018
		c-0.947,0.542-2.503,1.753-2.503,1.753s0.271,0.811,1.286,0.811c1.011,0,2.499-0.476,2.77-0.202
		c0.267,0.273,2.43-0.673,2.495-0.275c0.068,0.411,0.34,1.356,0.271,1.827c-0.065,0.468,1.011,1.083,0.947,0.136
		c-0.069-0.945-0.134-1.617-0.206-1.963c-0.065-0.335-0.129-2.023-0.065-2.556c0.065-0.55,0.675-0.479,1.152,0.332
		c0.47,0.806,1.214-0.066,0.671-0.947c-0.541-0.874-0.812-1.215-1.014-1.757c-0.202-0.534-0.134-1.416-0.336-2.224
		c-0.202-0.809-0.61-1.56-0.409-2.369c0.206-0.809,0.61-1.35,1.152-1.748c0.541-0.411,2.972-0.55,3.442,0.202
		c0.477,0.738,1.553,1.95,2.231,2.154c0.675,0.201,2.296,0.275,2.296,0.275s1.348,0.937,1.485,1.416
		c0.134,0.476,0.61,1.358,0.946,1.154c0.337-0.21,0.878-1.966,1.08-2.295c0.203-0.348,0.744-0.549,1.691-0.549
		c0.943,0,3.376,0.144,3.846,0.07c0.473-0.07,0.744,0.479,0.34,1.149c-0.405,0.673,0.068,0.809,0.34,0.744
		c0.267-0.071,2.563-1.154,2.563-1.286c0-0.128-0.877,0.275,0,0.948c0.878,0.67,0,1.69,0,2.499c0,0.814,0,0.744,0,1.487
		c0,0.746,0,0.608,0,1.555c0,0.937,0,1.958,0,2.902c0,0.939,0.543,2.023,0.947,2.298c0.405,0.267,0.607,0.607,0.878-0.139
		c0.271-0.744,1.011-1.487,1.011-1.487s0.409-0.139,0.676,0.21c0.271,0.332,0,1.075,0.675,1.748
		c0.675,0.678,1.556,1.892,2.502,2.167c0.943,0.267,1.755,0.201,1.687,0.735c-0.068,0.55-1.145,0.615-1.556,1.56
		c-0.401,0.939-0.81,2.499-0.198,3.237c0.61,0.751,1.213,1.285,1.823,1.691c0.607,0.403,1.622,1.753,1.82,1.962
		c0.203,0.204,1.691,0.94,2.301,1.28c0.606,0.34,2.16,0.541,2.361,0.607l2.026,0.743c0,0,6.753,3.243,5.537,3.648
		c-1.217,0.403-4.659-0.21-5.472-0.405c-0.808-0.21-1.823-1.422-2.43-1.01c-0.607,0.397-1.416,1.206-2.022,1.01
		c-0.61-0.21-2.229-0.403-2.229-0.403s-1.014-0.817-1.625-0.817c-0.606,0-2.229,0.403-3.037,0.607
		c-0.813,0.21-1.823,0.613-1.823-1.012c0-1.618,1.011-1.416,0.606-2.427c-0.405-1.012-1.011-0.809-0.405-1.822
		c0.607-1.01,0.202-1.421-1.014-1.219c-1.214,0.21-3.038,2.635-3.038,2.635s-2.025,0-1.011,1.416
		c1.011,1.416-0.812,2.428,1.011,2.832c1.824,0.405,3.446,0.615,4.052,1.018c0.607,0.405,1.622,2.436,1.015,3.041
		c-0.61,0.607-1.621,1.821-1.621,1.821s-1.42,1.01-2.43,1.219c-1.015,0.196-3.243,0.406-3.243,0.406s-1.824,0.202-2.637-0.406
		c-0.813-0.612-0.606,1.013,0.611,1.62c1.213,0.612,2.228,1.421,2.228,2.434c0,1.01-0.607,1.617,0,2.426
		c0.607,0.809,1.014,2.635,1.014,2.635l1.011,2.232c0,0.202,1.824,0.809,2.633,1.01c0.813,0.204,3.041-0.202,3.648-0.403
		c0.61-0.201,2.632,0.403,3.644-0.405c1.015-0.814,0.411-1.625,1.625-2.434c1.216-0.809,1.621-2.233,0.198-1.827
		c-1.412,0.405-3.643,0.607-4.857,0.607c-1.217,0-2.434-1.214-1.217-2.224c1.217-1.013,2.633-1.822,3.849-2.428
		c1.217-0.613,3.041-0.202,2.431-1.22c-0.607-1.01-2.835-1.617-3.648-2.023c-0.813-0.411-2.228-1.424-0.202-2.434
		c2.025-1.01,4.661-0.201,5.467-0.201c0.813,0,2.838-1.215,2.838,0.201c0,1.416,0.606,4.255,2.838,4.457
		c2.229,0.21,2.434,0,3.106,0.34c0.675,0.332,2.164,0.202,1.149-0.476c-1.015-0.673-2.633-1.28-3.445-2.096
		c-0.809-0.809-0.675-1.95-0.069-2.29c0.61-0.34,3.041-0.071,3.785-0.202c0.744-0.139,2.633-0.267,2.904,0
		c0.27,0.267,0.945,1.416,1.347,1.481c0.408,0.07,1.423-0.534,1.758-0.673c0.336-0.136,1.958,0.066,2.77-0.21
		c0.809-0.259,2.835-1.141,2.701-0.533c-0.133,0.607-0.878,1.149-1.892,1.892c-1.012,0.743-2.361,1.083-2.43,1.691
		c-0.065,0.607-0.675,1.141,0.405,2.023c1.079,0.88,1.892,1.552,2.43,2.159c0.541,0.612,1.824,1.351,2.632,1.691
		c0.813,0.338,1.896,0.539,2.163,0.809c0.271,0.267,0.543,0.945,0.405,2.028c-0.134,1.079-1.011,2.225-0.671,2.701
		c0.336,0.471,0.401,2.096,1.213,2.363c0.809,0.267,4.255,0.066,5.739-0.403c1.484-0.471,3.178-1.288,4.525-1.894
		c1.355-0.605,4.732-3.374,6.013-3.518c1.283-0.131,5.334-0.67,5.941-1.212c0.61-0.536,1.69-2.088,2.3-2.297
		c0.603-0.196,2.159,0,2.361,0.953c0.202,0.939,0.878,3.033,0.744,3.784c-0.137,0.738-1.217,1.887-0.409,2.499
		c0.813,0.607,1.214,1.416,1.214,1.749c0,0.34-0.539,1.083-1.145,1.012c-0.607-0.065-1.282-0.332-1.149-0.065
		c0.134,0.267,0.34,1.083,0.474,1.35c0.137,0.275-1.015,1.084-1.214,1.01l-1.286,0.204c-0.202,0.136-2.564,0.612-2.835,1.416
		c-0.271,0.814-0.405,1.084-1.079,2.094c-0.679,1.017-1.489,2.093-2.434,2.643c-0.943,0.534-4.121,2.29-4.59,2.897
		c-0.474,0.612-0.541,1.017-1.148,1.487c-0.607,0.476,0.271,1.222,0.878,1.625c0.607,0.405,1.686,1.957,1.755,2.298
		c0.069,0.332-1.892,0.672-2.297,1.682c-0.404,1.018,0,2.434-0.809,3.041c-0.809,0.607-2.03,2.022-2.633,2.022
		c-0.61,0-1.019,2.434-1.42,3.049c-0.405,0.604-0.202,2.02,1.011,2.426c1.218,0.403,3.041,1.617,2.43,2.023
		c-0.606,0.403-2.43-0.204-3.644,0.201c-1.221,0.406-1.824,1.01-3.243,0.809c-1.419-0.201-1.011,1.625,0.202,2.241
		c1.217,0.604,3.243,1.818,2.633,2.02c-0.606,0.204-2.026,0.608-1.619,1.416c0.405,0.809,1.218,3.648,0.608,4.054
		c-0.608,0.411-1.824,0.612-2.43,0.411c-0.607-0.209-1.622-1.424-2.228-1.026c-0.607,0.411-0.813,1.826,0.405,1.826
		c1.216,0,2.632-0.193,3.441,0c0.813,0.21,1.824,0.616,2.834-0.193c1.019-0.817,1.019-3.25,1.622-4.06
		c0.611-0.809,3.445-1.617,4.869-1.821c1.415-0.202,3.037,1.214,4.051,1.012c1.012-0.204,2.022-1.822,2.629-1.822
		c0.607,0-0.405-1.423-1.618-1.617c-1.216-0.201,0.401-1.424,2.027-1.424c1.621,0,4.253-0.816,4.864-0.816
		c0.603,0,3.037,0.615,3.846,2.848c0.813,2.224,1.217,3.234,3.648,4.658c2.43,1.408,2.835,2.023,3.242,3.444
		c0.405,1.416,1.012,2.63,2.026,2.63c1.012,0,1.824-0.607,3.239-0.607c1.419,0,3.243,1.617,4.056,1.214
		c0.809-0.405,2.43,0,3.037,1.018c0.608,1.005,2.229,1.617,3.24,1.005c1.014-0.607,1.625-0.811,2.637-1.822
		c1.011-1.01,0.606-2.023,1.419-2.224c0.809-0.202,3.647-1.215,4.456-2.635c0.809-1.423,0.202-2.638,1.015-3.447
		c0.809-0.809,2.633-1.01,3.644-1.617c1.015-0.608,2.027-1.01,3.041-1.215c1.012-0.202,2.835-0.817,2.835,0.809
		c0,1.62,0.61,2.499,0.203,2.905c-0.401,0.403-0.878,1.351-0.741,1.757c0.133,0.403-0.072,1.479,0.469,1.35
		c0.543-0.131,1.354-0.811,1.217-1.148c-0.133-0.34-0.335-0.948-0.133-1.625c0.199-0.673,0.539-1.28,0.473-2.023
		c-0.068-0.736-0.202-1.617,0-1.819c0.202-0.204,3.308-1.083,3.915-1.359c0.61-0.267,3.716,0.814,4.796,0.88
		c1.08,0.073,3.51-0.066,3.781,0.809c0.271,0.882,0.206,2.023,0.676,1.894c0.473-0.131,1.552-1.012,1.961-1.214
		c0.404-0.202,2.293-0.738,2.697-0.809c0.408-0.074,1.892-0.074,1.892,0.403c0,0.479,0.34,1.822-0.606,2.096
		c-0.947,0.267-0.809,1.552-0.607,1.749c0.199,0.209,1.015,1.695,1.485,1.63c0.473-0.071,1.354-0.411,1.484-0.814
		c0.138-0.406,0.409-1.021,0.675-1.288c0.271-0.267,0.878-0.6,1.218-0.542c0.336,0.073,0.606,0.615,0.541,1.288
		c-0.069,0.678,0.065,1.01-0.474,1.617c-0.541,0.608-0.946,2.369-0.403,2.701c0.537,0.34,2.025,0.549,2.155,0.751
		c0.141,0.202,0.34,1.489,0.546,1.748c0.202,0.275,0.74,0.817,0.942,1.215c0.206,0.411,0.34,1.63-0.133,2.442
		c-0.473,0.806-1.148,2.361-0.408,2.7c0.748,0.332,2.907,0.267,3.514,0.129c0.61-0.129,1.556,0,2.163,0.275
		c0.607,0.267,2.16,1.416,2.835,1.822c0.675,0.403,2.839,1.083,3.781,1.01c0.946-0.066,2.972,0.882,2.972-0.131
		c0-1.01-0.065-3.986-0.538-4.999c-0.474-1.01-0.542-1.761-0.744-2.094c-0.206-0.34-0.675-0.945-0.744-1.617
		c-0.068-0.678-0.877-2.84-0.744-3.382c0.138-0.541,0.676-1.211,0-1.818c-0.671-0.608-1.419-1.157-1.823-1.765
		c-0.401-0.604-1.214-2.093-1.485-2.902c-0.271-0.809-0.61-1.01-1.149-1.617c-0.538-0.607-1.011-1.62-1.754-1.764
		c-0.74-0.128-2.565-0.202-3.309-0.534s-0.881-0.607-1.621-1.083c-0.744-0.471-1.485-0.673-2.3-0.809
		c-0.809-0.131-2.968-2.63-4.048-3.583c-1.08-0.94-0.881-3.033-0.675-3.915c0.202-0.882,1.08-1.892,1.351-2.426
		c0.267-0.541,0.541-0.955,0.541-1.892c0-0.947-0.403-3.989-0.675-5.064c-0.271-1.084-1.689-1.9-1.014-3.18
		c0.679-1.277,1.754-2.159,2.366-2.295c0.606-0.139,3.51-1.149,4.387-1.149c0.878,0,4.934,0.476,5.472,0.476s1.42-2.434,1.957-3.177
		c0.539-0.738,1.759-2.096,1.824-2.704c0,0,0.271-1.277,0.271-1.745c0-0.476,0-4.263-0.069-4.465
		c-0.068-0.201-0.267-3.041-0.405-3.784c-0.133-0.744-1.35-3.18-1.758-3.64c-0.401-0.476-1.412-2.096-1.885-2.369
		c-0.473-0.275-2.369-0.811-2.907-0.811c-0.537,0-1.351-0.476-1.961-0.136c-0.607,0.34-0.607,0.542-1.282,0.817
		c-0.672,0.267-1.282,0.809-1.213,0.267c0.065-0.541,0.541-1.35,1.012-1.625c0.472-0.267,1.419-0.468,1.754-0.874
		c0.34-0.411,1.351-2.361,1.69-2.766c0.34-0.411-1.011-3.648-1.484-4.531c-0.477-0.871-1.217-3.37-0.878-3.305
		c0.336,0.062,2.362,2.434,2.701,3.443c0.336,1.01,0.539,1.958,0.946,2.499c0.401,0.534,1.553,1.351,1.82,1.481
		c0.271,0.136,1.488,0.612,1.961,0.21c0.473-0.414,0.877-0.955,0.675-1.625c-0.202-0.673-0.542-1.481-0.744-2.298
		c-0.206-0.809-0.675-2.635-0.606-4.182c0.064-1.56,0-4.593,0.472-5.611c0.47-1.013,0.676-2.434,1.283-3.577
		c0.606-1.149,0.877-4.059,0.74-4.326c-0.134-0.267,0.34-0.267,0.946-1.481c0.606-1.212,2.03-3.041,2.434-3.719
		c0.404-0.673,1.549-2.564,2.834-3.041c1.286-0.469,6.554-1.544,7.36-1.683c0.813-0.136,3.853,0.202,4.594,0.874
		c0.744,0.678,2.766,1.892,3.243,2.434c0.47,0.541,2.228,0.947,2.632,1.018c0.409,0.058,1.08,1.013,1.352,0
		c0.271-1.018-0.405-2.643-0.337-4.124c0.065-1.487,0.065-2.837,0.809-4.052c0.744-1.214,2.163-3.033,2.43-4.464
		c0.271-1.416-0.271-2.557-0.34-3.371c-0.065-0.811,1.084-1.554,1.488-1.489c0.405,0.071,0.809,1.358,1.218,0.882
		c0.403-0.471,0.202-1.489,0.403-2.162c0.203-0.678,2.431-2.902,3.106-3.041c0.676-0.136,1.961-0.267,2.903-0.874
		c0.947-0.612,2.366-4.391,2.637-5.271c0.267-0.882,2.77-5.331,3.106-5.807c0.339-0.479,1.889-4.054,2.499-5.2
		c0.61-1.142,1.214-2.978,1.958-3.85c0.744-0.874,2.094-1.958,2.637-2.565c0.537-0.607,2.091-2.499,3.846-2.499
		c1.758,0,3.648,0.88,3.918,1.691c0.271,0.809,0.946,2.426,0.809,2.902c-0.134,0.471-1.08,1.892-0.539,1.822
		c0.539-0.066,2.499-0.947,2.564-1.62c0.072-0.678-0.202-1.358-0.202-2.093c0-0.744,0.068-2.905,0.068-3.177
		c0-0.267,0.206-1.481-0.943-2.162c-1.152-0.67-1.823-0.541-1.693-1.753c0.137-1.215,0.409-2.905,1.625-3.784
		c1.217-0.876,2.564-1.748,3.377-1.69c0.808,0.07,2.361,0.337,2.697-0.131c0.34-0.476,0.137-1.358-0.267-2.023
		c-0.409-0.678-0.809-1.827,0-2.976c0.808-1.149,2.163-2.57,3.376-3.106c1.217-0.542,2.091-1.212,1.553-1.688
		c-0.542-0.479-1.015-0.947-1.015-1.489c0-0.534,0.137-1.214,0.408-1.756c0.271-0.542-0.137-1.075-0.541-1.416
		c-0.405-0.338-0.607-0.066-0.474-0.809c0.137-0.744-0.068-1.827,0.607-2.295c0.679-0.472,1.759-0.811,2.163-1.351
		c0.405-0.545,1.148-2.704,0.675-3.447c-0.473-0.743-1.286-1.22-1.012-1.957c0.268-0.744,0.401-2.295,0.134-2.499
		c-0.271-0.202-1.149,0-1.419,0.406c-0.271,0.403-0.878,0.604-1.687,0.403c-0.813-0.201-1.622-1.285-1.286-2.02
		c0.34-0.746,0.744-1.628,0.541-2.167c-0.202-0.537-0.744-1.215-0.878-2.364c-0.133-1.149,0.474-1.617,0.878-1.826
		c0.405-0.204,1.756-1.416,1.889-1.957c0.137-0.542,1.083-0.673,1.42-0.948c0.34-0.267,0-1.214-0.813-1.69
		c-0.809-0.468-1.214-1.212-2.359-1.416c-1.148-0.201-1.896,0.204-2.502-0.468c-0.607-0.673-0.878-1.351-1.351-1.756
		c-0.47-0.403-0.131-0.945,0.206-1.212c0.336-0.275,0.47-1.013,1.213-1.157c0.744-0.131,2.363-0.468,3.175-0.468
		c0.809,0,1.823-0.405,2.366-1.149c0.537-0.743,1.484-2.298,1.621-3.381c0.13-1.075,1.149-2.491,0.672-3.64
		c-0.473-1.154-0.947-0.607-1.012-1.35c-0.068-0.743-0.473-0.874,0.202-1.625c0.676-0.735,2.564-2.022,2.836-2.022
		c0.274,0,1.285-0.476,1.754-1.084c0.476-0.607,1.148-0.607,0.95-1.69c-0.203-1.081-0.679-1.081-0.408-1.892
		c0.27-0.809,0.946-1.617,1.488-2.159c0.538-0.534,2.228-1.885,3.51-1.683c1.282,0.202,2.163,1.489,2.094,2.023
		c-0.068,0.542-0.137,1.286-0.675,1.756c-0.538,0.476-1.35,0.67-1.217,0.945c0.137,0.275,0.542,1.691,1.217,1.822
		c0.675,0.144,2.565-0.463,2.904-0.537c0.336-0.07,2.091-0.743,2.697-0.678c0.61,0.074,0.95,0,0.95,0.34
		c0,0.338,0.065,1.083,0.065,2.159c0,1.083,0.206,1.827-0.267,2.7c-0.474,0.882-0.675,1.149-1.149,1.424
		c-0.474,0.267-1.011,0.468-0.881,1.35c0.137,0.874,0.747,1.285,1.216,0.736c0.474-0.534,1.554-1.617,1.889-2.086
		c0.339-0.472,0.541-1.288,0.946-2.298c0.408-1.018,0.542-1.827,0.542-3.242c0-1.416-0.134-2.225,0.407-3.106
		c0.539-0.88,1.958-2.295,2.969-2.976c1.015-0.673,1.282-1.617,3.175-1.617c1.896,0,4.189-0.476,4.929-0.074
		c0.744,0.414,0.744,2.298,1.218,1.764c0.472-0.549,0.675-2.371,1.148-2.371c0.474,0,4.121-1.212,4.998-0.468
		c0.874,0.743,2.16,1.957,2.495,1.551c0.34-0.403,0.61-1.617,0.744-2.02c0.137-0.405,0.946-1.358,1.42-1.562
		c0.473-0.202,1.148-0.267,1.621-0.332c0.473-0.07,2.499-0.809,2.903-1.146c0.405-0.34,1.69-0.673,1.892-0.673
		c0.202,0,0.943,0.6,1.553,0c0.61-0.615,1.42-1.56,1.687-1.56c0.271,0,2.095-0.131,2.296-0.607c0.202-0.469-0.267-0.738,0.069-1.142
		c0.336-0.411,0.809-0.476,0.809-0.953c0-0.471-1.145-1.013-1.757-1.013c-0.606,0-1.621-0.403-2.158-0.879
		c-0.543-0.471-1.488,0.476-1.759,0.879c-0.271,0.406-0.809,1.214-1.148,1.416c-0.336,0.204-1.554,0.204-2.022,0.139
		c-0.478-0.066-1.558-1.351-2.233-2.096c-0.675-0.744-1.347,0.541-1.621,1.149c-0.267,0.607-0.874,1.892-1.012,2.096
		c-0.137,0.202-0.675,0.33-1.011,0.33c-0.34,0-0.812-0.937-0.946-0.604c-0.138,0.338-0.474,1.355-0.271,1.826
		c0.202,0.469,0.133,1.278,0,1.487l-0.943,0.131l-0.541-1.552c-0.134-0.202-0.206-1.013-0.607-0.811
		c-0.412,0.204-0.477,0.61-0.675,0.882c-0.206,0.267-0.748,0.405-0.95,0.332c-0.198-0.066-0.469-0.129-0.874-0.202
		c-0.408-0.058-0.679,0.882-0.546,1.219c0.138,0.34,0.138,0.746,0,0.948c-0.133,0.201-0.401,0.403-0.675,0.332
		c-0.267-0.066-0.267,0.607-1.011-0.608c-0.74-1.211-1.011-2.159-1.621-2.094c-0.608,0.071-0.474,0.809-0.539,1.552
		c-0.069,0.743-0.137,1.489-0.61,1.958c-0.473,0.476-1.351,0.882-2.358,0.677c-1.015-0.201-1.087-0.809-0.611-1.146
		c0.47-0.34,1.283-0.541,0.47-0.746c-0.809-0.202-1.347,0.074-2.091-0.743c-0.744-0.801-0.61-2.089,0.135-2.159
		c0.743-0.066,1.083,0,1.487-0.406c0.405-0.403,0.741-1.083,1.145-1.551c0.409-0.468,0.409-0.817,1.149-0.947
		c0.748-0.129,4.323-0.736,4.796-0.605c0.474,0.136,1.485,0.136,1.485,0.403c0,0.275,0.339,0.947,0.949,0.743
		c0.608-0.202,1.619-1.219,2.095-1.481c0.47-0.272,1.889-0.612,1.958-0.814c0.066-0.202-1.083-0.874-1.759-1.28
		c-0.675-0.403-1.622-1.154-0.946-1.625c0.675-0.468,1.148-0.874,1.823-0.809c0.675,0.066,1.691,0.607,2.026,0.809
		c0.34,0.204,0.542,0.817,1.148,0.139c0.607-0.681,0.947-1.62,1.824-1.829c0.878-0.194,1.011,0.406,0.878,0.948
		c-0.134,0.541,0,1.552,0.476,1.819c0.47,0.275,0.806,1.358,1.755,0.607c0.943-0.736,1.35-1.141,1.751-1.949
		c0.409-0.809,1.557-2.233,3.782-1.762c2.231,0.477,5.338,0.071,5.879-1.012c0.538-1.084,0.744-1.688,0.878-1.957
		c0.134-0.267-0.809-2.094-1.484-2.767c-0.679-0.677-1.622-2.294-0.607-2.093c1.012,0.202,2.358,2.427,2.767,3.033
		c0.403,0.607,0.877,1.157,1.35,1.358c0.472,0.202,2.026-0.882,2.228-1.012c0.203-0.144,2.767-1.422,3.309-1.762
		c0.542-0.332,2.434-1.214,3.178-1.818c0.74-0.608,2.361-1.895,3.445-2.434c1.077-0.544,6.548-2.769,7.83-2.839
		c1.286-0.066,2.77-0.874,3.445-1.288c0.679-0.403,1.69-0.403,2.229-0.937c0.541-0.536,1.149-1.012,0-1.012
		c-1.149,0-2.43,0.332-3.171,0.065c-0.744-0.267-1.42-0.874-1.557-1.753c-0.133-0.882,0.072-1.416-0.469-1.822
		c-0.542-0.411-1.892-1.559-2.163-2.434c-0.271-0.882-0.542-2.093,0.271-2.701c0.809-0.615,1.823-1.083,2.163-1.489
		c0.336-0.403,0.74-1.278,0.267-1.958c-0.473-0.678-1.015-1.487-0.675-1.892c0.339-0.403,0.675-0.332,0.878-1.01
		c0.202-0.681-0.069-1.559-0.271-2.7c-0.198-1.149,1.892-1.353,1.824-2.976c-0.069-1.62,1.553-2.096,1.622-1.547
		c0.068,0.534,0.877,2.557,1.014,3.51c0.133,0.939,0.607,1.617,0.202,2.499c-0.409,0.874-1.084,2.63-1.217,3.307
		c-0.138,0.678-0.268,0.738-0.675,1.489c-0.405,0.736-0.134,1.212-0.203,2.093c-0.069,0.874,0.069,2.361,0.271,2.557
		c0.203,0.202,0.809,0.678,0.809,1.157c0,0.468,0.409,1.01-0.271,1.487c-0.671,0.463-1.283,2.224-0.809,2.224
		c0.474,0,1.489,0.204,2.026-0.607c0.539-0.809,1.485-1.761,2.16-2.021c0.675-0.275,1.958-0.147,2.232-0.275
		c0.271-0.139,0.61-0.809,0.946-1.215c0.336-0.403,0-0.144,0.943-0.549c0.946-0.398,6.485-2.295,10.065-2.225
		c3.575,0.074,11.275-2.368,12.832-2.836c1.552-0.471,2.903-0.267,3.85-0.602c0.945-0.346,3.777-0.879,4.658-1.355
		c0.878-0.472,5.063-0.542,5.536-0.542c0.473,0,3.445,1.285,4.594,1.551c1.148,0.275,2.838,0.817,3.376,1.56
		c0.542,0.738,0.744,1.481,1.217,2.428c0.473,0.952,0.473,1.413,1.755,2.02c1.286,0.615,3.51,1.083,4.052,0.955
		c0.542-0.147,5.403-1.222,7.566-1.222c2.16,0,5.471,0.744,7.157,1.149c1.687,0.406,3.984,2.701,6.078,3.648
		c2.095,0.945,4.594,1.018,5.673,1.075c1.08,0.074,5.808,0.21,6.147,0.21c0.336,0,7.562,1.683,9.321,2.766
		c1.755,1.084,4.861,3.915,4.929,5.339c0.065,1.424-0.068,1.552-0.206,3.373c-0.134,1.827-0.336,3.106,0.881,4.261
		c1.213,1.141,4.457,3.509,6.28,4.522c1.82,1.01,5.201,2.902,6.142,3.646c0.947,0.746,3.175,1.353,3.648,1.424
		c0.476,0.058,2.231,0.332,3.311,0.866c1.08,0.55,2.702,0.955,3.106,1.829c0.405,0.879,2.43,4.794,2.636,6.21
		c0.203,1.424,0.336,1.958,0,2.913c-0.339,0.937-0.541,1.544-0.339,2.556c0.199,1.018,0.202,2.709,0.675,3.452
		c0.473,0.736,0.473,1.552,1.485,1.819c1.014,0.275,2.098,0.476,3.174,0.744c1.08,0.269,2.159,0.544,2.903,2.022
		c0.744,1.489,1.213,2.507,1.69,3.583c0.474,1.084,1.554,2.913,2.701,3.648c1.148,0.743,2.026,1.691,3.446,2.167
		c1.416,0.463,2.632,1.01,3.171,1.546c0.541,0.542,1.148,2.02,1.552,2.976c0.409,0.945,0.947,2.093,0.608,3.784
		c-0.337,1.675-0.539,2.902,0.072,3.504c0.604,0.612,1.416,0.677,1.893,0.879c0.47,0.202,1.484-0.338,2.091-0.267
		c0.606,0.065,2.296,0,2.701,0.267c0.405,0.267,1.893,0.607,2.366,0.607c0.473,0,1.618,2.159,2.43,3.444
		c0.809,1.288-0.542-1.211,2.293,3.714c2.838,4.932,2.769,5.2,3.311,6.213c0.538,1.018,1.149,2.442,1.351,3.112
		c0.202,0.673,2.094,0.947,2.43-0.67c0.34-1.625,1.419-2.848,1.149-4.74c-0.271-1.885,0.267-5.258,0.267-7.15
		c0-1.892,0.542-5.54,1.014-7.165c0.474-1.617,2.702-7.149,2.702-7.424c0-0.275,0.607-5.273,0.812-6.414
		c0.203-1.157,0.675-6.148,0.943-7.165c0.271-1.01,1.419-3.776,1.892-4.659c0.478-0.874,1.015-3.308,0.676-3.915
		c-0.34-0.615-1.08-1.351-1.08-2.434c0-1.075,2.636-3.713,4.525-8.372c1.892-4.658,4.121-9.73,4.391-11.274
		c0.271-1.562,2.633-7.974,3.781-9.261c1.148-1.277,4.254-7.555,4.926-8.976c0.679-1.424,3.041-5.873,3.987-7.092
		c0.947-1.215,2.973-4.321,4.456-5.064c1.489-0.744,1.824-1.01,2.298-1.416c0.473-0.406,2.026-0.752,1.285-2.298
		c-0.744-1.56-1.354-1.22-1.824-2.029c-0.473-0.809-1.484-1.821-1.015-2.638c0.474-0.809,2.637-3.169,4.461-3.373
		c1.823-0.21,5.669-0.67,6.547-1.018c0.882-0.332,3.04-1.481,3.849-1.884c0.813-0.411,1.622-0.816,1.69-1.691
		c0.065-0.882-0.541-2.635,0.474-3.776c1.011-1.157,3.849-3.857,4.728-4.334c0.877-0.472,1.617-2.023,0.877-2.154
		c-0.74-0.136-4.387-0.275-5.471-0.346c-1.08-0.058-0.542-0.534-0.404-1.207c0.133-0.673,3.04-2.708,4.12-3.583
		c1.08-0.874,2.362-1.625,2.701-2.434c0.336-0.809,2.16-2.564,2.972-3.172c0.809-0.604,2.564-1.424,3.041-1.35
		c0.47,0.073,0.268,1.083,0.943,0.541c0.675-0.541,0.541-0.743,0.812-1.285c0.268-0.541-0.137-1.01,0.47-1.424
		c0.61-0.398,1.827-0.607,2.03-0.332c0.199,0.275,1.282,0.471,1.282,0.471s2.362-0.874,5.063-2.224
		c2.702-1.351,7.295-3.787,8.917-4.329c1.621-0.534,7.563-4.593,8.913-5.402c1.351-0.809,6.754-4.051,7.295-5.129
		c0.542-1.084,1.618-2.701,1.618-5.135s2.705-3.51,3.517-3.51c0.805,0,2.16,1.351,2.969,1.351c0.809,0,1.622-3.242,2.163-4.593
		c0.538-1.353-1.473-6.077-0.271-5.946c2.427,0.267,0.809,2.434,2.16,2.159c1.351-0.267,1.08-2.426,2.701-2.967
		c1.621-0.542,2.701,1.075,2.701,1.884c0,0.817,1.354-0.259,1.622-1.617c0.271-1.351,3.781-5.402,6.482-5.938
		c2.702-0.542,3.782,2.428,4.865,1.079c1.079-1.35-0.003-1.453,0.906-2.06c0.913-0.608,6.385-3.85,7.199-4.153
		c0.808-0.304,6.178-2.434,7.189-3.243c1.015-0.809,3.546-2.224,4.461-2.839c0.909-0.607,2.931-1.617,3.846-1.719
		c0.909-0.1,2.227-1.421,3.242-1.929c1.016-0.505,2.633-0.505,2.228-1.313c-0.405-0.809-1.011-1.921-1.924-1.819
		c-0.91,0.1-3.037,1.617-4.254,2.02c-1.217,0.406-1.727,0.911-2.229,0.608c-0.506-0.304-2.834-0.706-3.744-0.608
		c-0.914,0.102-3.349,0.304-4.461,0.911c-1.112,0.608-1.217,0.406-2.332,0.406c-1.113,0-0.199,0.1-1.113,0
		c-0.909-0.094-1.415-0.507-0.606-0.809c0.806-0.304,2.228-1.518,3.442-2.227c1.217-0.706,2.232-0.706,3.142-1.112
		c0.913-0.411,2.94-0.613,4.153-0.714c1.217-0.094,1.321-0.801,0.307-1.112c-1.019-0.304-5.067-0.202-5.778-0.304
		c-0.708-0.1-0.102-0.706-1.112-0.607c-1.014,0.102-2.123,0-2.838,0.507c-0.708,0.505-1.012,0.505-1.723,0.908
		c-0.708,0.406,0.105,0.608-0.708,0.406c-0.813-0.202,1.217,0.303,0,0c-1.218-0.304-1.726,0.202-2.127,0.303
		c-0.405,0.107-0.712,0-1.011-0.505c-0.303-0.507-0.509,0.202-1.112,0.403c-0.61,0.209-2.637,0.101-3.348-0.094
		c-0.708-0.21-0.808-1.22-0.303-1.827c0.506-0.612,1.319-1.018,0.809-1.827c-0.506-0.809,0.61-1.013,0.61-1.013
		s3.546-0.3,4.255-1.01c0.711-0.706,0.202-1.313-0.509-1.313c-0.704,0-0.91-0.911-1.719-0.911c-0.809,0-1.319,0.505-2.33,0.607
		c-1.011,0.094-0.813,2.225-1.621,1.819c-0.813-0.403-0.303-1.725,0.505-2.939c0.809-1.22,1.828-2.434,3.142-3.447
		c1.319-1.01,3.243-1.921,4.157-1.921c0.91,0,1.82,0.102,2.525-0.505c0.714-0.612,2.235-3.14,2.636-3.648
		c0.412-0.505,2.131-2.635,2.834-3.242c0.712-0.608,1.322-2.738,1.423-3.748c0.101-1.018,1.213-3.041,1.011-4.051
		c-0.198-1.013-0.303-2.428-1.112-2.536c-0.812-0.094-4.255-0.809-5.067-0.709c-0.813,0.102-2.127,0-3.139,0.102
		c-1.015,0.099-2.333,0.201-1.112-0.505c1.209-0.717,2.936-2.031,3.034-2.839c0.101-0.809,0.509-2.225-0.198-2.73
		c-0.712-0.505-2.027-1.625-3.243-2.84c-1.217-1.219-2.03-3.546-3.551-4.76c-1.512-1.212-1.719-2.029-1.719-2.84
		c0-0.806-0.105-3.544-0.91-4.454c-0.813-0.911-0.813-1.214-1.824-1.821c-1.015-0.612-1.216-0.612-1.928-0.915
		c-0.704-0.304-0.198,1.01,0,1.724c0.206,0.71,0.509,2.227,0.61,2.63c0.102,0.403-0.711,0.202-1.52,0.304
		c-0.809,0.1-1.416,0.505-1.925,1.112c-0.502,0.615-0.809,1.112-1.218,1.421c-0.403,0.306-2.022-0.308-2.325-1.11
		c-0.307-0.817,0.098-1.727-0.409-1.625c-0.505,0.099-1.011,0.908-1.723,0.505c-0.711-0.406-1.722-2.125-2.535-3.538
		c-0.805-1.423-0.098-2.638,0.105-3.554c0.206-0.911,1.116-1.821,0.404-2.528c-0.707-0.709-1.01-0.811-1.622-1.215
		c-0.606-0.405-0.606-8.408,0.203-9.426c0.813-1.01,2.131-1.314,2.329-1.618c0.206-0.311,0.611-3.041,0.206-3.345
		c-0.405-0.303-0.206-2.022-1.116-2.224c-0.914-0.202-1.722-0.304-2.733-1.12c-1.016-0.809-1.113-1.515-2.735-2.635
		c-1.621-1.112-1.42-1.618-0.407-1.618c1.015,0,3.344,1.314,4.153,1.416c0.808,0.1,3.546,0.505,3.849,0
		c0.304-0.508,0.812-2.528,0.61-3.441c-0.202-0.911-1.011-2.128-1.112-3.141c-0.104-1.015,0.708-3.849,0.911-4.357
		c0.202-0.508,0.913-2.937,1.621-3.543c0.708-0.61,1.618-0.814,1.922-1.52c0.306-0.712,0.403-3.447,0.61-4.255
		c0.202-0.811,1.012-2.429,1.921-3.444c0.914-1.016,1.622-3.648,2.94-5.163c1.318-1.52,2.026-3.044,1.719-3.449
		c-0.299-0.406-2.123-0.301-3.336-0.508c-1.221-0.201-2.031-0.604-2.637-1.112c-0.607-0.505-4.156-1.217-5.67-2.228
		c-1.524-1.015-3.55-2.127-3.748-3.65c-0.206-1.518-0.408-2.63-0.105-3.441c0.303-0.814,0.405-1.217,1.218-1.623
		c0.812-0.406,1.52-0.707,2.025-1.416c0.506-0.712,1.011-1.52,1.723-2.332c0.712-0.809,1.011-1.316,1.517-1.316
		c0.509,0,1.318,0.204,1.824-0.099c0.509-0.304,0.61-0.304,0.61-1.018c0-0.709,0.509-3.444-0.303-4.151
		c-0.813-0.709-1.925-1.622-2.936-1.013c-1.018,0.61-1.52,1.518-2.435,2.128c-0.913,0.607-1.621,1.623-1.929,1.623
		c-0.299,0-0.909,0-1.719,0.201c-0.809,0.199-2.329,0.503-3.546,0.608c-1.213,0.102-1.921,1.623-1.415,2.127
		c0.505,0.505,1.618,1.112,1.719,1.515c0.104,0.409,0.303,0.911-0.304,1.118c-0.607,0.202-1.52,0.202-2.531,0.306
		c-1.016,0.099-2.027,0.4-3.139-0.105c-1.115-0.505-7.803-2.431-10.235-2.228c-2.43,0.202-6.482,1.212-8.812,3.138
		c-2.33,1.928-5.168,3.347-7.7,3.952c-2.535,0.61-8.612-1.822-11.144-3.544c-2.532-1.727-3.951-3.041-3.749-3.951
		c0.202-0.911,0-2.026-0.607-2.434c-0.607-0.401-1.52-1.819-1.216-2.528c0.306-0.712,0.505-2.334-0.405-3.141
		c-0.915-0.811-1.926-1.219-2.734-1.319c-0.813-0.102-1.52-0.102-2.027,0.607c-0.505,0.712-0.913,1.317-1.116,1.824
		c-0.202,0.508-0.404,0.811-1.112,1.013c-0.708,0.204-0.611,0.304-2.031,0c-1.416-0.301-9.62-3.345-12.054-5.875
		c-2.431-2.536-3.341-3.949-4.154-4.457c-0.809-0.507-2.127-0.811-3.543-1.418c-1.419-0.61-5.067-2.633-5.98-3.342
		c-0.906-0.712-0.809-2.128-2.326-1.725c-1.52,0.403-2.637,2.028-3.749,1.319c-1.116-0.709-2.535-1.824-2.734-3.245
		c-0.206-1.415-0.307-2.026,0.607-2.633c0.91-0.607,2.43-0.607,3.139-1.617c0.707-1.018,1.722-2.232,1.617-3.242
		c-0.098-1.013,0.105-2.633-0.809-3.546c-0.909-0.911-2.329-2.431-2.531-3.648c-0.199-1.214-1.218-1.623-2.023-0.505
		c-0.812,1.115-1.018,2.428-2.03,2.732c-1.011,0.308-1.116-0.097-1.719-0.605c-0.61-0.507-2.535-1.219-3.243-2.836
		c-0.708-1.623-0.913-4.056-1.217-5.166c-0.304-1.118-0.304-1.421-1.217-2.029c-0.91-0.61-1.622,1.112-1.416,2.431
		c0.202,1.319,0,2.834,0.3,3.648c0.303,0.811,0.509,1.824,0,2.026c-0.505,0.202-1.618,1.623-2.326,1.313
		c-0.712-0.3-0.712-0.4-1.318-1.211c-0.607-0.811-0.404-1.317-1.213-1.317c-0.813,0-1.521,0.304-0.913,1.215
		c0.606,0.913,0.913,2.531,0.808,3.447c-0.1,0.908-0.324,1.418-1.621,1.313c-1.293-0.102-1.293-0.809-1.293,0.202
		c0,1.01,1.741,1.523,0,1.622c-1.745,0.1-2.553-0.304-3.77-1.217c-1.217-0.911-1.824-0.811-2.43-2.63
		c-0.61-1.824-0.61-1.928-0.505-3.446c0.097-1.518,0.809-6.587,1.012-7.799c0.202-1.217,0.812-2.531,0.708-2.939
		c-0.101-0.405,0.505-1.719-0.708-2.735c-1.218-1.015-3.446-2.434-4.659-3.041c-1.217-0.607-1.622,0-2.737,0
		c-1.116,0-2.937,0-2.43,0.913c0.509,0.911,1.621,1.415,1.314,2.023c-0.303,0.61-1.314,1.725-2.022,2.536
		c-0.712,0.809-1.423,1.62-1.116,2.227c0.303,0.61,0.509,1.217,0.606,1.926c0.102,0.706,0,2.531-0.303,3.645
		c-0.303,1.112,0.303,3.041,0,3.546c-0.303,0.508-1.416-3.14-2.025-4.357c-0.604-1.214-2.026-4.456-2.937-5.367
		c-0.913-0.908-1.42-3.036-2.229-2.431c-0.812,0.607-0.913,1.217-0.711,3.446c0.202,2.225,0.607,3.441-0.506,4.454
		c-1.112,1.013-0.711,2.33-1.319,2.732c-0.606,0.409-0.708,1.22-0.303,1.727c0.409,0.505,1.52,2.127,1.52,2.127
		s-1.112,0.301-2.127-1.012c-1.015-1.319-1.318-1.419-1.318-1.725c0-0.304-1.214-2.431-1.011-4.156
		c0.202-1.717-1.315-0.196-2.435-0.196c-1.112,0-1.52-0.304-1.618,1.01c-0.105,1.313,0,2.531-0.405,2.633
		c-0.409,0.101-1.419-0.202-1.723-0.505c-0.307-0.306-0.712-1.118-1.116-1.013c-0.404,0.1-0.909,0.1-1.217,0.199
		c-0.303,0.105-1.618,0.409-2.531,0.306c-0.911-0.102-1.926,0-2.633,0c-0.711,0-5.37,0-6.077-0.306
		c-0.711-0.304-2.127,0.712-3.142-0.403c-1.016-1.112-2.735-3.344-3.142-4.154c-0.401-0.809-0.911-1.623-1.922-1.214
		c-1.014,0.405-1.116,2.127-2.029,2.127c-0.911,0-2.229-0.104-2.33-1.015c-0.101-0.913,0.711-2.738-0.505-3.141
		c-1.217-0.4-2.229-1.012-2.737-0.706c-0.506,0.306-0.401,1.317-1.315,1.215c-0.909-0.105-1.723-0.105-2.229-1.016
		c-0.505-0.913-0.71-2.937-1.823-3.339c-1.116-0.409-0.607,1.416-1.015,2.025c-0.405,0.608-1.012,1.921-1.112,2.633
		c-0.102,0.712-1.014,0.505-1.723-0.201c-0.708-0.71-0.91-0.913-1.52-0.61c-0.606,0.304-1.214,0.61-1.922,0.508
		c-0.711-0.105-1.014,0.102-1.321-0.712c-0.304-0.809-0.603-0.908-1.112-0.908s-1.217,0.908-1.318,1.722
		c-0.102,0.809-0.405,2.127,0,2.834c0.408,0.712,1.723,2.533,1.621,3.447c-0.097,0.908-1.112,2.329-2.127,3.039
		c-1.011,0.709-3.95,2.635-4.759,3.342c-0.813,0.712-3.142,2.734-3.648,3.138c-0.505,0.413-2.329,1.217-3.445,1.217
		c-1.116,0-2.434,0.206-3.142,0.101c-0.708-0.101-1.521-1.117-0.91-2.329c0.607-1.217,1.318-0.709,2.127-1.52
		c0.809-0.806,2.43-1.617,3.041-2.227c0.606-0.61,1.823-1.317,1.52-2.432c-0.307-1.114-0.407-3.143-0.812-2.734
		c-0.405,0.405-1.824,1.518-2.33,2.224c-0.509,0.714-1.318,1.523-2.228,1.827c-0.914,0.304-1.52,0.809-1.929,1.115
		c-0.401,0.3-0.805,0.709-0.502-0.71c0.304-1.418,0.304-1.319,0.708-1.722c0.405-0.405,1.315-1.114,1.824-1.52
		c0.505-0.405,0-0.709-0.509-0.507c-0.506,0.204-2.127,1.016-2.633,1.319c-0.505,0.304-1.516,1.317-1.516,2.026
		c0,0.712-1.014-0.403-0.813,0.102c0.202,0.505,0.913,1.418,1.116,1.722c0.198,0.3,0.405,3.342,0.405,4.153
		c0,0.809,0.303,1.824,0.606,2.326c0.303,0.51-1.42,1.929-2.127,2.434c-0.708,0.511-2.026,1.319-2.734,1.622
		c-0.711,0.306-1.217,1.317-1.52,1.62c-0.303,0.304-1.723,1.112-2.329,0.911c-0.611-0.201-1.622-1.416-1.622-1.416
		s-0.914-1.016-1.42-0.61c-0.505,0.403-1.213,1.015-1.723,1.418c-0.505,0.406-1.52,1.418-1.921,1.722
		c-0.408,0.304-1.217,1.215-1.015,2.026c0.203,0.811,0.405,2.334,0.101,2.734c-0.303,0.406-1.924,0.61-2.636,0.814
		c-0.708,0.199-0.198,1.924-1.415,1.521c-1.217-0.409-1.824-1.016-2.127-1.217c-0.303-0.204,0.708-0.712-0.813-0.105
		c-1.52,0.61-1.116,1.322-1.621,1.217c-0.506-0.1-1.82,0.709-2.023,1.722c-0.202,1.01-0.711,2.633-0.913,3.546
		c-0.202,0.91-0.102,2.127-1.011,3.038c-0.914,0.913-2.127,2.232-3.344,3.245c-1.217,1.013-2.532,2.329-3.546,3.135
		c-1.015,0.816-1.015,0.712-1.719,0.913c-0.712,0.207-0.813-0.405-1.621,0.207c-0.813,0.607-1.318,1.314-1.622,1.415
		c-0.307,0.105-1.014,0.809-1.014,0.809s-0.303-1.013-0.405-1.518c-0.101-0.507-0.202-1.319-0.505-1.01
		c-0.307,0.304-0.206,1.314-0.711,1.824c-0.506,0.503-0.202,0.704-0.914,0.608c-0.707-0.105-1.415-0.814-1.415-0.814
		s-0.102-0.403-0.102-1.521c0-1.112,0.708-1.112,0.505-1.719c-0.202-0.61-1.318-0.201-2.228,0.503
		c-0.914,0.709-2.33,1.12-3.85,0.913c-1.517-0.204-1.319-0.706-2.431-0.61c-1.115,0.105-1.723,0.105-2.734,0.105
		c-1.015,0-2.232,0-2.838-0.911c-0.607-0.913-0.304-2.635-1.415-3.342c-1.116-0.712-2.738-1.018-4.056-1.725
		c-1.318-0.706-2.633-1.722-3.849-2.227c-1.218-0.51-1.824-1.217-3.138-1.52c-1.315-0.304-1.42,0.505-3.041,0.403
		c-1.621-0.1-0.303,1.422,0.708,1.521c1.018,0.101,1.823-0.812,2.43,0c0.61,0.809,1.625,1.421,1.625,2.531
		c0,1.117-0.306,2.031,0.405,2.536c0.708,0.507,3.445,1.518,4.052,2.023c0.607,0.511,3.648,1.52,4.153,2.738
		c0.509,1.215,1.42,2.633,1.723,3.138c0.304,0.511,2.633,2.128,3.546,2.942c0.911,0.811,2.735,2.227,3.24,3.242
		c0.505,1.01,1.318,2.428,1.823,3.14c0.51,0.709,0.813,1.62,0.51,2.431c-0.304,0.809-0.813,1.013-0.611,2.125
		c0.206,1.115-1.315,9.117-1.618,10.536c-0.303,1.421-0.509,2.028-0.206,3.344c0.307,1.314,0.813,2.937,0.404,3.544
		c-0.404,0.608-1.213,1.016-1.314,1.62c-0.101,0.608-0.101,3.345,0.102,4.457c0.202,1.118,0.505,4.054,0.606,6.179
		c0.105,2.127-0.606,5.069-1.521,6.995c-0.909,1.923-0.708,4.046-3.037,5.671c-2.329,1.625-5.167,4.051-6.487,4.051
		c-1.314,0-1.314,1.115-2.628,2.125c-1.321,1.018-3.648,5.372-4.966,6.99c-1.318,1.62-2.431,3.549-3.546,4.769
		c-1.113,1.214-2.333,2.528-3.244,3.541c-0.913,1.018-3.543,2.434-4.663,3.342c-1.108,0.918-3.947,3.143-4.755,3.447
		c-0.813,0.303-3.547,0.706-5.168,0.607c-1.622-0.102-7.194-0.102-8.816-1.112c-1.618-1.013-3.138-2.334-3.847-2.428
		c-0.711-0.099-1.011,0.505-1.419,1.112c-0.404,0.607-1.824,0.303-2.228-0.202c-0.408-0.505-0.813-1.727-2.029-1.929
		c-1.214-0.202-5.775-0.403-7.292-0.809c-1.517-0.405-2.329-0.303-3.644,0.202c-1.318,0.507-7.299,2.84-9.021,2.536
		c-1.723-0.304-3.744-1.12-4.453-1.12c-0.715,0-2.127-0.809-3.041-1.415c-0.91-0.607-1.925-1.929-2.835-2.029
		c-0.913-0.101-2.838-1.214-2.838,0c0,1.22-0.206,2.738-0.206,2.738s0.509,0.607-0.198,0.706c-0.712,0.11-1.116-0.194-1.319-0.607
		c-0.202-0.403-0.505-1.827-1.116-2.13c-0.607-0.296-1.112-0.403-2.027,0c-0.909,0.413-1.011-1.719-1.621-0.908
		c-0.606,0.806-1.214,1.819-2.127,3.038c-0.91,1.222-1.719,2.232-2.127,2.436c-0.404,0.202-0.606-0.709-0.809-1.115
		c-0.202-0.411-0.91-0.908-0.91-0.908l-1.622,1.112c0,0-0.61,1.212-0.303,1.617c0.303,0.406,1.416,2.123,1.416,2.123
		s0.101,0.911-0.809,1.214c-0.914,0.312-2.127,0.107-2.228-0.303c-0.102-0.398-0.307-2.528-1.015-2.528
		c-0.708,0-2.026,1.822-1.517,2.638c0.506,0.809,0.809,0.809,0.506,1.211c-0.304,0.406-2.434,2.434-2.535,2.84
		c-0.098,0.403-1.521,0.202-2.43,0.403c-0.914,0.204-4.558,2.023-4.966,2.023c-0.401,0-9.216,1.929-9.216,1.929
		s-1.314-0.916-1.619-0.809c-0.307,0.101-1.924,1.313-1.924,1.313s0.098,1.12,0.198,1.526c0.105,0.403-0.733,0.822-1.011,0.706
		c-0.91-0.403-1.824-0.915-2.33-0.809c-0.505,0.102-2.431,0.505-2.737,1.01c-0.304,0.505-0.304,1.921,0.306,2.832
		c0.607,0.911,1.213,3.959,0.809,4.059c-0.404,0.094-2.026-0.403-2.535-0.916c-0.505-0.505-1.517-3.143-2.225-3.344
		c-0.712-0.202-1.622,0.102-1.622,0.102l0.101,1.625c0,0-0.505,0.908-1.015,0.403c-0.505-0.505-0.909-0.403-1.011-1.929
		c-0.102-1.515,0.102-3.546-0.206-4.253c-0.304-0.709-1.416-0.508-1.619,0.411c-0.206,0.911-0.206,2.528-1.011,2.426
		c-0.813-0.1-1.318,0.101-1.318-1.01c0-1.12,1.015-2.233,0.809-2.738c-0.202-0.505-1.823-1.727-2.434-1.929
		c-0.606-0.202-0.909,0.911-1.819,0.911c-0.915,0-1.824-0.911-2.432-1.316c-0.61-0.403-1.317-0.202-1.52-1.416
		c-0.202-1.211-3.345-5.372-4.258-6.789c-0.911-1.415-1.517-1.819-1.925-3.234c-0.401-1.416-0.91-3.546-1.213-4.363
		c-0.303-0.809-2.434-4.962-3.041-6.385c-0.606-1.416-3.846-7.896-4.355-9.317c-0.506-1.415-2.326-4.753-3.037-5.47
		c-0.708-0.706-0.405-2.232-1.52-2.939c-1.116-0.709-3.543-3.033-4.862-4.761c-1.318-1.725-2.127-2.332-2.025-3.648
		c0.101-1.314-0.102-2.732-0.303-3.646c-0.206-0.911,0.098-1.518-0.712-1.921c-0.809-0.408-0.809-0.408-1.517-0.102
		c-0.712,0.304-1.318,0.304-1.318,1.518c0,1.214,0.909,2.533-0.303,2.635c-1.217,0.1-0.913,0.202-1.521-0.814
		c-0.606-1.01-1.419-2.737-1.419-3.747c0-1.01,0.405-2.128-0.708-3.24c-1.116-1.115-2.127-2.536-3.348-3.444
		c-1.214-0.911-0.805-0.809-1.517-2.233c-0.707-1.415-1.011-1.518-1.722-1.01c-0.708,0.507-1.922,2.531-2.528,3.242
		c-0.611,0.706-1.521,2.227-2.839,2.329c-1.318,0.1-2.232,0.304-3.142-0.102c-0.91-0.405-4.052,0.202-4.558,0.306
		c-0.506,0.1-0.506,2.125,0.303,2.125c0.809,0,2.127-0.809,2.532-0.709c0.405,0.102,3.951,0.304,4.561,0.809
		c0.606,0.51,2.127,2.638,2.127,3.245c0,0.608,0.404,1.722,0.101,2.633c-0.304,0.913-0.408,1.722-0.711,1.924
		c-0.304,0.202-0.506,0.304-1.214,0.202c-0.712-0.1-1.625,0.507-1.116,1.12c0.506,0.608,0.708,1.416,0.813,2.125
		c0.102,0.706,0.303,1.219,0,2.332c-0.307,1.112,0,0.709-0.913,1.719c-0.91,1.01-2.633,1.921-2.633,1.921s-1.621-1.415-3.142-1.01
		c-1.52,0.403-3.951,2.13-3.951,2.13s-2.733,0.202-4.557,0.406c-1.824,0.202-2.835,0.403-3.239,1.212
		c-0.409,0.816-0.813,1.826-1.42,2.232c-0.61,0.405-2.228,1.112-2.636,1.416c-0.405,0.304-0.91,1.01-1.011,1.314
		c-0.105,0.303,0.303,0.709-0.611,1.222c-0.91,0.505-3.239,2.123-3.85,2.225c-0.606,0.107-4.355,3.242-5.164,4.051
		c-0.813,0.809-0.606,1.719-1.52,2.03c-0.91,0.301-2.026,0.916-2.734,0.809c-0.711-0.102-1.317-0.508-3.142,1.01
		c-1.824,1.526-2.734,1.827-2.535,3.041c0,0,0.307,2.738,0.307,3.849c0,1.112-0.505,2.031-0.61,2.84c-0.098,0.809,0,2.426,0,3.747
		c0,1.314-0.405,3.546-0.708,4.962c-0.303,1.416,0,1.617-0.809,3.545c-0.809,1.929-0.708,2.335-1.42,3.751
		c-0.708,1.415-1.516,1.515-1.722,2.832C211.493,222.797,210.987,226.544,210.987,226.544z"></path>
	<path class="st0" d="M195.386,219.756c-0.708,0.505-2.636,1.214-3.647,1.719c-1.012,0.513-0.809,2.028-1.521,3.046
		c-0.708,1.013-2.632,1.416-3.644,1.215c-1.015-0.202-2.131,1.01-2.434,1.415c-0.303,0.405,0.303,0.911,1.015,1.01
		c0.708,0.102,1.723,0.102,1.824,1.316c0.101,1.212,0.506,2.233-0.202,3.25c-0.708,1.01-0.708,2.73-1.116,3.64
		c-0.404,0.908,0.409,1.423,1.116,1.423c0.708,0,1.217-0.515,1.921-0.717c0.711-0.201,1.824,0.102,2.333,0.406
		c0.505,0.311,1.621,0.202,0.913-0.709c-0.711-0.911-2.434-3.842-2.737-4.659c-0.303-0.809-0.203-2.738,0.101-3.747
		c0.304-1.013,2.636-1.013,3.442-1.215c0.813-0.202,1.321,0,1.116-1.415c-0.202-1.416,0-2.131,0.405-3.041
		c0.408-0.916,0.813-0.916,1.213-1.725c0.412-0.811,1.929-1.112,1.221-1.418C195.993,219.25,195.386,219.756,195.386,219.756z"></path>
	<path class="st0" d="M193.865,205.47c-0.549-0.267-1.116-1.013-0.708-1.416c0.405-0.405,0.708-0.607,0.913-0.911
		c0.199-0.303,1.214,1.01,1.214,1.719C195.285,205.569,194.678,205.872,193.865,205.47z"></path>
	<path class="st0" d="M187.893,204.862c0,1.01,0.1,2.434,0.501,2.837c0.408,0.413,0.303,1.222-0.304,1.222
		c-0.606,0-1.824,0.202-2.43,0.608c-0.606,0.403,0,1.01-0.813,1.01c-0.809,0-1.011,0.709-1.824-1.112
		c-0.809-1.827-0.707-2.434,0.408-3.14c1.116-0.717,1.922-1.625,2.531-1.829C186.574,204.255,187.893,204.862,187.893,204.862z"></path>
	<path class="st0" d="M179.785,192.813c0,0.809-0.708,1.314-0.506,2.327c0.203,1.01,0.203,2.628,0.506,3.143
		c0.303,0.497,1.115,0.403,0.606,1.617c-0.505,1.22-0.813,1.321-1.416,1.523c-0.61,0.202-1.621,0-2.232,0.709
		c-0.606,0.707-0.809,1.819-0.098,2.123c0.708,0.304,2.127,0.809,2.531,0.911c0.401,0.099,0.101,1.523-0.1,2.434
		c-0.206,0.911,0,1.523-1.015,1.725c-1.016,0.204-1.214,0.204-2.229,0.204c-1.01,0-2.531-0.608-3.542-0.304
		c-1.015,0.304-1.218,0.202-1.929,1.01c-0.708,0.809-1.824,2.73-2.329,3.033c-0.506,0.304-1.314-1.112-1.723-2.426
		c-0.405-1.313-0.203-2.224-1.112-3.143c-0.913-0.908-1.217-1.413-1.318-1.921c-0.101-0.513-0.405-1.117,0.606-1.219
		c1.015-0.102,2.94-2.327,3.652-2.934c0.708-0.604,1.921-2.229,2.123-2.844c0.206-0.608-0.101-1.207,0.303-1.416
		c0.409-0.202,1.727,0,2.03,0.21c0.303,0.194,0.405,0.405,1.416-0.21c1.015-0.607,2.026-1.515,2.43-2.023
		c0.408-0.505,0.711-0.908,1.217-1.214c0.509-0.301,1.015-0.706,1.419-1.22C179.482,192.403,179.785,192.403,179.785,192.813z"></path>
	<path class="st0" d="M180.9,192.099c0,0-0.206-1.719,0.203-2.023c0.405-0.309,0.405-0.309,0.809-0.107
		c0.405,0.21,0.405,0.916-0.101,1.421C181.304,191.898,180.9,192.099,180.9,192.099z"></path>
	<path class="st0" d="M142.605,455.897c-0.318-0.641,0.303-1.416,0.913-1.617c0.607-0.202,1.116-1.523,1.622-1.625
		c0.505-0.099,1.723,1.112,2.127,1.827c0.401,0.709,1.52,1.316,1.723,2.326c0.198,1.013,0.606,1.416-0.203,1.617
		c-0.812,0.204-0.913,0.102-1.726,0.304c-0.809,0.204-1.213,1.12-1.921,0.405C144.428,458.424,143.317,457.313,142.605,455.897z"></path>
	<path class="st0" d="M109.785,464.002c-0.708,0.505-2.131,1.719-1.318,2.428c0.809,0.714,1.723,1.523,1.723,2.13
		c0,0.607-0.913,2.131-0.307,2.533c0.61,0.406,1.824,0.607,2.535-0.403c0.708-1.013,1.823-0.202,2.127-1.013
		c0.303-0.814,0.405-1.429-0.506-1.934c-0.913-0.507-1.217-0.196-1.621-1.313c-0.404-1.112-0.404-1.518-1.213-2.125
		C110.391,463.698,109.785,464.002,109.785,464.002z"></path>
	<path class="st0" d="M125.891,550.583c0.947,0,0.809,1.22,0.268,1.487c-0.535,0.267-1.348,1.076-2.294,1.222
		c-0.946,0.129-2.434-0.146-2.434-0.146s0.946-0.67,2.03-1.076C124.541,551.659,125.891,550.583,125.891,550.583z"></path>
	<path class="st0" d="M152.367,617.442c0,0,0-1.211-0.271-0.541c-0.271,0.673,0.675,2.564,0.813,3.52
		c0.133,0.937,0.538,1.745-0.275,2.968c-0.809,1.219-2.297,2.434-1.622,3.242c0.679,0.809,1.489,1.481,1.896,1.756
		c0.401,0.267,1.481,0.945,0.671,1.617c-0.809,0.673-0.671,1.625-1.754,1.757c-1.08,0.136-1.218,1.761,0,1.35
		c1.216-0.405,2.159-0.541,3.106-1.35c0.945-0.811,2.701-0.811,3.781-1.489c1.083-0.673,1.083-2.159,1.083-3.106
		c0-0.939,0.134-2.426,0.134-3.374c0-0.945-0.134-1.753-1.621-2.564c-1.485-0.806-2.294-1.356-3.377-2.57
		C153.854,617.442,152.367,617.442,152.367,617.442z"></path>
	<path class="st0" d="M685.497,320.961c0,0-0.271-0.678,0-1.761c0.271-1.075,0.676-0.809,1.217-0.131
		C687.252,319.741,686.173,321.633,685.497,320.961z"></path>
	<path class="st0" d="M656.183,350.402c-0.408-0.549-0.671-1.345-0.133-1.748c0.542-0.406,0.947,0.403,0.947,1.481
		C656.996,351.219,656.591,350.944,656.183,350.402z"></path>
	<path class="st0" d="M793.694,248.964c-0.383-0.382-0.679-1.084,0.397-1.489c1.083-0.403,0.672-0.937,1.621-1.893
		c0.947-0.937,1.217-0.267,1.625-1.211c0.401-0.94,0.268-0.673,0.538,1.211c0.271,1.893,0.138,2.84-0.809,2.976
		c-0.95,0.139-2.026,0.139-2.434,0.275C794.228,248.964,793.958,249.239,793.694,248.964z"></path>
	<path class="st0" d="M742.091,119.969c0-1.089-1.755-0.942-1.351-2.295c0.405-1.35,0.271-1.889,0.946-2.025
		c0.675-0.133,2.163,0.539,2.972,0.947c0.809,0.403,2.026,1.078,1.621,1.889c-0.405,0.809-1.487,2.568-1.892,4.052
		c-0.405,1.487-0.947,2.161-0.947,3.648c0,1.487,0.271,3.382-0.538,3.382c-0.813,0-0.675,0.942-1.488,0.267
		c-0.813-0.675-1.217-1.756-2.16-1.889c-0.95-0.139-2.835,0.539-3.243,0c-0.404-0.542-0.675-1.351-0.404-2.3
		c0.271-0.945,0.137-1.348,1.351-1.215c1.213,0.133,2.434,1.617,3.109,1.351c0.672-0.267,0.134,0,0.943-0.942
		C741.824,123.886,742.091,120.647,742.091,119.969z"></path>
	<path class="st0" d="M574.872,69.994c-0.426-0.853,0.405-1.889,1.485-2.973c1.083-1.081,1.622-2.834,2.568-3.106
		c0.946-0.269,1.08,0.675,0.675,2.162c-0.405,1.487-0.675,2.029-1.621,3.104C577.035,70.264,575.28,70.806,574.872,69.994z"></path>
	<path class="st0" d="M578.786,60.811c-0.401-0.544-0.133-1.622,0.543-2.298c0.675-0.675,1.351-2.564,1.892-2.564
		c0.542,0,0.542,1.351,0.675,2.7c0.134,1.348-1.892,3.106-2.567,2.97C578.654,61.487,578.786,60.811,578.786,60.811z"></path>
	<path class="st0" d="M643.76,7.455c-1.485-0.541-2.972-2.158-4.189-0.672c-1.214,1.483-3.511,4.724-5.536,5.671
		c-2.026,0.945-3.106,2.159-3.915,1.892c-0.813-0.272-3.243,0.267-4.327,1.079c-1.08,0.811-3.914,1.758-5.399,2.164
		c-1.489,0.401-2.799,1.757-3.965,0.539c-1.17-1.214-1.036-2.836-2.658-2.973c-1.617-0.133-1.076,2.568-1.214,4.052
		c-0.133,1.489-0.133,2.836,0.542,3.514c0.672,0.675,2.333,4.59,3.33,4.86c0.99,0.273,1.983,1.487,0.99,1.217
		c-0.99-0.267-4.185-1.351-4.862-1.487c-0.675-0.133-1.351-0.539-2.292,0.542c-0.947,1.081-1.217,3.242-2.568,3.915
		c-1.35,0.678-0.675,2.162,0,3.378c0.675,1.215,2.698,1.89,4.32,1.215c1.621-0.67,2.474-4.185,4.413-4.324
		c1.936-0.133,2.206-1.212,3.424-2.025c1.213-0.809,2.026-0.403,2.834-0.267c0.809,0.133,3.919,0.675,4.727,1.617
		c0.809,0.947,2.027-0.267,2.838-0.267c0.81,0,2.431,2.431,3.106,3.918c0.676,1.481,1.217,2.023,0.947,3.106
		c-0.271,1.081-0.809,3.24-1.759,4.048c-0.943,0.817-1.888,1.758-2.294,1.758c-0.407,0-0.133,0.809,1.08,0.948
		c1.214,0.133,2.431,0.4,2.298,0.942c-0.138,0.542-0.138,1.487-0.947,2.162c-0.813,0.677-1.888,0.947-2.026,1.62
		c-0.134,0.675-0.134,2.703,1.083,3.109c1.214,0.403,3.648-0.542,4.319-1.756c0.676-1.217-0.404-2.434,0.538-4.19
		c0.947-1.753,1.488-2.7,2.298-4.318c0.812-1.623,1.621-5.673,3.243-6.89c1.621-1.217,4.322-1.756,6.485-2.84
		c2.16-1.075,3.644-0.534,5.132-0.534c1.484,0,1.888,0,2.564,1.348c0.676,1.345,1.083,2.97,1.351,3.918
		c0.271,0.947,0.946,2.968,1.621,4.182c0.675,1.217,1.755,4.326,2.296,3.517c0.542-0.811-0.137-4.19-0.541-5.135
		c-0.405-0.947-0.405-4.051,0-5.807c0.405-1.756,0.813-3.51,1.488-4.732c0.672-1.215,0.405-1.348,1.347-2.023
		c0.95-0.675,1.354-0.811,1.621-1.487c0.275-0.673-0.267-1.214,0.275-3.376c0.538-2.165,1.347-4.996,1.752-6.888
		c0.407-1.892,0.407-2.84-0.675-4.051c-1.077-1.215-1.619-0.409-2.294-1.351c-0.679-0.947-1.488-1.489-0.679-2.57
		c0.813-1.079,1.621-1.484,1.354-2.565c-0.271-1.083-0.675-2.028-1.08-2.703c-0.408-0.673-1.488-0.809-2.43-0.809
		c-0.949,0-1.893-0.139-4.055,0c-2.16,0.136-2.972,1.753-4.457,3.242c-1.489,1.484-1.621,2.023-3.11,2.431
		c-1.481,0.403-2.831,0.675-3.78,0.675C645.381,7.997,643.76,7.455,643.76,7.455z"></path>
	<path class="st0" d="M646.595,39.737c0.957-0.95-0.539-1.484,0.405-1.617c0.949-0.136,1.354-0.136,2.838,0
		c1.485,0.133,1.888,0.942,1.213,1.756c-0.671,0.809-1.08,1.89-2.297,2.431c-1.213,0.537-1.347,0.809-2.43,0.678
		c-1.077-0.141,0-0.408,0.675-1.358C647.678,40.684,646.461,39.875,646.595,39.737z"></path>
	<path class="st0" d="M667.396,3.674c-0.78-0.581-0.809-1.618,0-1.618C668.209,2.056,667.938,4.077,667.396,3.674z"></path>
	<path class="st0" d="M583.785,33.66c-1.43-0.358-2.633-0.405-3.85-0.809c-1.213-0.405-3.037-2.232-1.824-3.849
		c1.218-1.623,3.648-2.434,4.259-2.434c0.606,0,2.43-0.809,3.441-1.621c1.012-0.809,3.445-1.418,4.056-0.403
		c0.603,1.01,1.82,2.227,3.037,2.633c1.218,0.403,2.229,2.633,1.42,3.648c-0.812,1.01-1.217,1.419-2.434,2.429
		c-1.213,1.015-1.82,1.214-2.229,2.633c-0.404,1.421-1.416,1.623-2.227,0.607C586.624,35.484,584.598,33.861,583.785,33.66z"></path>
	<path class="st0" d="M556.433,31.836c-1.214,0.61-0.608,2.026,0.206,3.243c0.809,1.217,2.43,2.632,2.228,4.054
		c-0.202,1.418,1.213,1.822,2.227,2.633c1.015,0.811,4.659,0,5.674,0.204c1.012,0.199,3.442-1.62,1.42-2.028
		c-2.03-0.406-2.03-0.406-2.636-1.822c-0.608-1.418-0.405-1.015-1.824-2.428c-1.416-1.422-1.416-1.016-2.431-2.031
		c-1.011-1.013-2.835-1.214-3.445-1.824C557.245,31.229,556.433,31.836,556.433,31.836z"></path>
	<path class="st0" d="M512.467,63.039c-1.719-0.286-0.607-2.228-0.607-2.228s1.42-1.622,2.431-0.814
		c1.011,0.814,1.011,3.248,1.011,3.248S513.684,63.245,512.467,63.039z"></path>
	<path class="st0" d="M502.947,58.783c0,0,4.049,2.836,3.038,3.446c-1.015,0.608-2.637,1.416-3.648,2.227
		c-1.012,0.809-0.607,2.633-2.026,3.24c-1.415,0.61-3.037,1.623-3.445,0.61c-0.405-1.01-0.203-1.217,0.206-2.229
		c0.401-1.01,1.011-1.415,0-2.635c-1.011-1.212-2.637-2.428-2.026-3.646c0.603-1.214,1.82,0.811,2.835,1.419
		c1.015,0.607,2.838-0.809,3.445-1.824C501.933,58.377,502.947,58.783,502.947,58.783z"></path>
	<path class="st0" d="M483.496,58.987c0,1.361-0.606,2.633-1.212,3.242c-0.61,0.608-2.434,1.62-2.434,2.432
		c0,0.809-0.61,0.604-1.213,1.211c-0.61,0.61-1.221,0.409-1.424,1.824c-0.198,1.418,0.203,2.638-0.401,3.248
		c-0.61,0.607,1.214,2.428,1.824,2.627c0.604,0.204,1.618,2.229,2.834,1.421c1.214-0.809,1.012-1.824,1.42-3.038
		c0.405-1.217,1.011-2.635,1.619-2.84c0.61-0.201,1.621,1.22,2.434,0.814c0.809-0.408,1.011-1.015,1.415-2.232
		c0.405-1.214,0.61-0.607-0.809-3.035c-1.419-2.432-1.419-2.029-1.824-3.85C485.316,58.987,483.496,58.582,483.496,58.987z"></path>
	<path class="st0" d="M470.325,83.909c-0.607,0.809-0.813,1.01-0.405,2.224c0.405,1.217,0.81,2.635,1.622,3.242
		c0.809,0.61,2.633,2.635,3.037,1.013c0.405-1.62,1.015-2.831-0.202-4.051C473.16,85.123,470.325,83.909,470.325,83.909z"></path>
	<path class="st0" d="M459.383,97.282c1.015-0.408,2.029,0.607,2.029,1.819c0,1.22,0.202,1.421,0.401,2.633
		c0.206,1.217,0.206,1.83-1.011,1.83c-1.214,0-0.405,2.428-2.229,2.224c-1.824-0.199-1.824-1.214-1.014-2.023
		c0.813-0.814,2.231-1.217,2.231-2.637c0-1.413,0.405-1.413-0.408-2.429C458.574,97.685,459.383,97.282,459.383,97.282z"></path>
	<path class="st0" d="M465.465,98.902c1.231,0,2.026,0,1.823,1.013c-0.206,1.01,0.203,2.026-0.206,2.834
		c-0.405,0.814-1.216,0.408-1.823-0.202c-0.607-0.607-0.607-1.214-0.405-2.227C465.06,99.305,464.854,98.902,465.465,98.902z"></path>
	<path class="st0" d="M472.756,101.127c0,0,1.217-0.403,2.025,0.607c0.813,1.016,2.03,0.207,0.813,1.016
		C474.378,103.563,472.756,102.547,472.756,101.127z"></path>
	<path class="st0" d="M456.953,73.572c-0.202,0.814,0.202,2.638,0.607,3.449c0.408,0.809,1.217,3.24,0.813,4.048
		c-0.405,0.814,0.809,0.61,1.621-0.809c0.809-1.416,1.621-1.623,0.809-2.836c-0.809-1.215-1.012-1.623-1.824-2.837
		C458.169,73.373,456.953,73.572,456.953,73.572z"></path>
	<path class="st0" d="M470.731,62.229c-0.81-0.814-1.42-2.632-1.218-3.852c0.206-1.214-0.202-3.444-0.202-4.253
		c0-0.811,2.231-0.408,2.636,1.013c0.405,1.418-0.202,2.836,0.405,3.444c0.606,0.607,1.419,0.405,1.217,1.415
		c-0.203,1.016-2.232,3.853-2.633,3.041c-0.412-0.809-0.412-0.809-0.412-0.809H470.731z"></path>
	<path class="st0" d="M465.866,64.457c-0.607-0.202-0.805,1.416-0.805,1.416s1.82,1.424,2.022,0.814
		C467.288,66.077,466.476,64.661,465.866,64.457z"></path>
	<path class="st0" d="M383.811,196.354c-1.42-0.405-2.43-1.214-1.618-2.022c0.809-0.809,1.213-0.809,2.022-1.01
		c0.813-0.204,1.824-0.204,2.026,0.806c0.206,1.013-0.202,1.822-0.603,2.428C385.23,197.163,383.811,196.354,383.811,196.354z"></path>
	<path class="st0" d="M286.458,157.05c-0.354-0.534-0.708-1.013-0.202-1.924c0.508-0.913,0.812-1.623,1.419-2.738
		c0.607-1.112,1.112-2.025,0.607-3.24c-0.506-1.217-1.318-1.52-1.42-2.434c-0.098-0.911,0.505-1.926,1.116-2.431
		c0.606-0.505,2.43-0.809,3.138-0.707c0.712,0.1,2.839-1.421,2.839-1.421s-0.61-1.924-1.318-4.151
		c-0.708-2.229-0.708-2.436-1.723-2.735c-1.012-0.303-1.419,0-1.719-1.112c-0.304-1.12,0.098-2.738,0.805-3.551
		c0.711-0.809,2.131-2.125,2.842-2.329c0.708-0.202,3.644-0.304,4.857,0c1.217,0.306,2.637,0.61,3.142,0.709
		c0.506,0.1,1.824,1.01,1.824,2.13c0,1.112,0.409,4.051,1.318,4.761c0.911,0.712,1.52,1.01,2.127,0.913
		c0.607-0.104,1.419-0.201,2.33-0.913c0.909-0.71,2.939-0.608,3.748-0.508c0.809,0.102,0.303,2.431-1.015,3.447
		c-1.314,1.01-1.922,1.617-3.037,1.921c-1.112,0.304-1.824,0-2.937,0.911c-1.116,0.913-1.42,1.016-1.928,2.434
		c-0.506,1.418-0.506,1.622-1.521,2.227c-1.011,0.608-1.314,0.814-2.022,1.421c-0.712,0.604-1.315,1.418-1.727,2.428
		c-0.401,1.013-0.098,0.916-0.805,1.926c-0.711,1.01-0.711,0.707-1.626,1.319c-0.909,0.604-1.516,0.908-2.426,1.824
		c-0.913,0.908-1.828,2.531-3.041,2.531C288.892,157.759,286.863,157.657,286.458,157.05z"></path>
	<path class="st0" d="M302.16,126.252c-0.661-0.662,0.202-1.217,0.405-2.329c0.202-1.112-0.101-2.33-0.405-2.735
		c-0.304-0.409-0.91-0.507-1.52-1.722c-0.606-1.217-0.606-1.12-1.116-2.332c-0.505-1.215,0-2.327,0.509-2.431
		c0.505-0.102,1.823,0.607,2.329,0.712c0.509,0.099,1.015,0.607,1.824,0.706c0.81,0.102,1.521-0.202,1.824-0.403
		c0.303-0.204,1.112-1.219,1.621-1.52c0.506-0.303,0.607-0.814,1.011-0.607c0.405,0.202,0,0.806,0.61,0.806
		c0.608,0,1.012-0.806,1.723-1.013c0.708-0.199,1.011-0.607,1.112-0.303c0.101,0.303,0,1.217-0.307,2.13
		c-0.303,0.911-0.401,4.559-0.097,4.862c0.303,0.304,2.835,0.911,3.441,0.809c0.61-0.102,1.116-0.709,1.521-0.913
		c0.403-0.198,0.812-0.709,1.216-0.806c0.405-0.102,1.116-0.61,1.011-0.204c-0.101,0.405-0.808,1.114-1.112,1.62
		c-0.303,0.505-0.303,1.015-0.812,1.722c-0.506,0.712-0.809,2.329-1.315,2.633c-0.509,0.303,0-0.403-0.509,0.303
		c-0.505,0.712-0.704,1.625-1.214,2.233c-0.505,0.607-0.61,1.012-1.115,0.809c-0.506-0.202-1.112-0.913-1.416-1.62
		c-0.303-0.709-1.418-1.518-1.823-1.623c-0.405-0.101,0-0.709-0.915-0.303c-0.909,0.408-0.808,0.202-1.314,0.809
		c-0.509,0.61-0.408,0.51-0.813,1.117c-0.405,0.61-0.101,0.61-0.809,0.812c-0.711,0.201-0.914,0.101-1.217,0.101
		c-0.304,0-1.216-0.811-1.216-0.811L302.16,126.252z"></path>
	<path class="st0" d="M275.621,105.685c-0.719,0-1.318,0.511-2.026,0.511c-0.712,0-1.218,0.1-1.42-0.511
		c-0.202-0.607-0.708-0.809,0-1.416c0.708-0.61,0.91-0.61,2.026-1.01c1.112-0.405,1.824-0.51,2.431-0.814
		c0.61-0.304,1.318,0,1.419-0.913c0.102-0.911,0.405-1.819,0.303-2.122c-0.101-0.309-0.303-2.031,0.202-2.638
		c0.509-0.608,0.509-0.809,1.012-0.911c0.509-0.099,1.014-0.099,1.52-0.505c0.509-0.408,0.914-0.104,1.52-1.114
		c0.607-1.015,0.405-1.217,2.027-1.52c1.622-0.304,2.228,0.607,2.734,0.607c0.509,0,1.116,0.507,1.524,1.52
		c0.401,1.013,0.809,1.416,1.109,2.531c0.306,1.118,1.116,2.13,1.423,2.942c0.303,0.806,0.606,1.012,0.91,1.62
		c0.304,0.607,1.112,1.923,1.315,2.329c0.206,0.405,1.318,1.112,1.625,1.214c0.3,0.105,1.518,0,1.719,0.508
		c0.206,0.505,0.303,1.013,0.206,1.824c-0.105,0.809,0.198,1.112-0.408,1.926c-0.611,0.809-0.708,1.317-1.012,2.128
		c-0.306,0.809-0.405,1.722-0.306,2.227c0.1,0.505,0,1.215,0.509,1.722c0.506,0.505,1.217,0.814,1.314,1.215
		c0.101,0.403,2.131-0.304-0.909,1.926c-3.041,2.229-1.621,1.214-3.041,2.229c-1.416,1.013-1.723,1.112-2.127,1.112
		c-0.405,0-1.517,0.51-2.023,0.303c-0.509-0.201-5.471-0.706-5.981-0.607c-0.505,0.102-0.303,0.102-1.012,0.406
		c-0.708,0.303-1.419,0.913-1.723,1.214c-0.303,0.306-1.112,1.317-1.415,1.523c-0.307,0.199-0.206,0.608-0.813,0.608
		c-0.606,0-1.011,0.099-1.52,0.303c-0.506,0.202-1.218,0.607-1.922,0.913c-0.712,0.304-1.318,0.607-2.029,0.809
		c-0.708,0.202-0.304,0.406-1.42,0.505c-1.112,0.101-1.824,0.809-2.532,0.204c-0.708-0.61-0.909-1.117-1.112-1.824
		c-0.202-0.709-0.202-1.214-0.509-1.821c-0.303-0.61-0.102-0.409-0.809-0.409c-0.712,0-1.42,0-0.81-1.016
		c0.608-1.01,0.608-0.706,1.517-1.515c0.914-0.814,0.303,0.202,0.914-0.814c0.603-1.01,0.505-1.01,1.213-1.719
		c0.712-0.709,1.015-1.018,1.52-1.115c0.505-0.101,1.217-0.814,2.127-1.114c0.913-0.304,1.217-0.406,2.026-0.102
		c0.813,0.304,1.015,0.304,1.419,0.706c0.405,0.409-0.303,1.016,0.809,0.814c1.115-0.207,1.318-0.102,2.029-1.01
		c0.708-0.911,0.505-0.814,0.708-2.638c0.202-1.824-0.202-2.834-0.306-3.24c-0.098-0.408,0-0.505-0.304-1.115
		c-0.304-0.607-1.112,0-0.405-1.117c0.708-1.112,0.405-1.212,0.611-1.717c0.202-0.508,0.202-0.814,0.098-1.52
		c-0.098-0.712,0-1.118-0.401-1.319c-0.408-0.202-0.711-0.202-1.014-0.303C277.849,104.471,275.924,105.685,275.621,105.685z"></path>
	<path class="st0" d="M259.206,129.157c0.488-0.484-0.137-2.028,0.271-2.431c0.405-0.408,1.487-0.267,1.755,1.078
		c0.271,1.353,1.35,2.298,1.35,3.107c0,0.813-0.405,1.489-0.943,0.95c-0.541-0.542-0.675-0.542-1.351-0.814
		C259.611,130.777,258.802,129.566,259.206,129.157z"></path>
	<path class="st0" d="M246.917,133.342c-0.476-0.854-1.217-0.809-1.625-1.89c-0.401-1.081-1.076-1.756-1.076-2.7
		c0-0.948,1.485-1.622,2.701-0.27c1.217,1.351,2.159,0.675,2.969,1.487c0.813,0.809,0.27,0.539-0.267,1.617
		c-0.543,1.084-0.675,0.948-0.813,1.898C248.672,134.42,247.592,134.559,246.917,133.342z"></path>
	<path class="st0" d="M319.314,109.572c0.629-1.047-0.133-2.567,0.135-4.19c0.27-1.618,2.3-3.648,3.242-4.318
		c0.947-0.675,2.43-0.675,3.106,0.403c0.675,1.081,1.217,2.703,1.892,3.378c0.675,0.675,1.889,1.753,0.947,2.295
		c-0.947,0.541-1.488,0.675-2.568,1.623c-1.084,0.942-1.893,2.026-3.51,2.159C320.936,111.058,318.906,110.247,319.314,109.572z"></path>
	<path class="st0" d="M323.638,118.487c0.766-0.691,0.537-1.489,1.617-2.703c1.084-1.215,0.543-1.081,1.759-2.295
		c1.213-1.217,2.026-2.431,2.293-1.489c0.271,0.947-0.405,1.353-0.671,2.165c-0.271,0.809-0.947,1.484-1.217,2.431
		c-0.271,0.947-0.541,1.215-0.946,1.751c-0.405,0.542,0.541,0.409-0.943,1.359C324.042,120.647,322.287,119.705,323.638,118.487z"></path>
	<path class="st0" d="M334.038,110.111c0-0.539,0.542-1.487,1.217-2.162c0.675-0.675-0.271-0.809,0.675-0.675
		c0.943,0.139,0.672,0.947,0.672,2.026c0,1.083-0.134,2.025-0.672,2.972c-0.542,0.948-0.946,1.217-0.946,1.892
		c0,0.675,0.133,1.214-0.408,1.62c-0.539,0.403-1.755,1.215-1.755,1.215s-0.675-0.403-0.138-1.215
		c0.543-0.811,0.413-0.811,0.95-2.029c0.539-1.211,0.268-1.35,0.405-2.158C334.172,110.789,334.038,110.111,334.038,110.111z"></path>
	<path class="st0" d="M330.391,101.872c-0.271-0.405-1.214-2.159-1.214-2.837c0-0.675,0.134-0.945,0.401-1.62
		c0.271-0.675,1.354-0.133,1.354-0.133s1.08,1.215,1.485,2.292c0.405,1.083,0.538,0.272,0.809,1.892
		c0.271,1.623,0.946-0.403,0.407,2.431c-0.537,2.839-1.621,2.839-1.621,2.839c-1.08-0.814-2.163-1.487-1.892-2.839
		C330.391,102.547,330.391,101.872,330.391,101.872z"></path>
	<path class="st0" d="M338.361,104.976c-0.409-0.403-0.541-2.7-0.137-2.834c0.404-0.133,0.947-0.809,0.947-0.809
		s0.137-0.541,1.08-1.083c0.946-0.537,1.487-0.133,2.43-1.623c0.946-1.487,1.217-1.345,2.296-1.887
		c1.083-0.541,1.622-0.814,2.027-0.408c0.404,0.408,0.541,1.892,0.271,3.109c-0.271,1.217-0.542,1.351-1.214,2.431
		c-0.675,1.078-1.217,1.753-2.163,2.434c-0.943,0.67-1.755,0.539-2.16,1.214c-0.407,0.675-0.812,0.809-0.812,1.62
		c0,0.809-0.539,2.159,0,2.292c0.541,0.139,0.812,0.275,1.354,0.139c0.538-0.139,0,0.947-0.408,1.487
		c-0.405,0.539-0.809,1.214-1.351,1.348c-0.539,0.139-0.675,0.547-1.084,0c-0.401-0.537-0.809-0.537-0.538-1.887
		c0.271-1.353,0.137-1.214,0.137-2.973C339.036,105.787,338.361,104.976,338.361,104.976z"></path>
	<path class="st0" d="M138.832,202.203c0.038-0.316,0.317-1.605,0.639-1.879c0.318-0.272,0.719-0.916,1.397-1.039
		c0.676-0.115,1.756-0.275,1.914-0.316c0.159-0.044,1.517-0.044,1.918-0.082c0.397-0.034,0.957,0.717,0.516,1.199
		c-0.437,0.484-1.636,1.678-1.834,1.871c-0.199,0.204-0.758,1.005-1.239,1.083c-0.476,0.082-0.639,0.16-1.076,0.275
		c-0.441,0.123-1.036,0.405-1.159,0.562c-0.119,0.16-0.481,0.681-0.798,0.882c-0.318,0.196-0.398,0.32-0.878,0.513
		c-0.477,0.201-0.477,0.68-0.798,0.442c-0.318-0.241-0.557-0.159-0.437-0.442c0.119-0.28,0.318-0.67,0.835-1.076
		c0.52-0.397,0.758-0.361,0.96-0.837C138.99,202.881,138.832,202.203,138.832,202.203z"></path>
	<path class="st0" d="M151.204,201.924c-0.238-0.196-0.957-1.12-0.997-1.599c-0.039-0.476,0.398-0.994,0.517-1.515
		c0.123-0.521,0.321-0.759,0.679-0.795c0.361-0.042,1.155-0.123,1.477-0.087c0.32,0.044,1.238,0.204,1.556-0.115
		c0.322-0.317,0.878-0.398,1.156-0.678c0.282-0.275,0.718-0.238,0.917-0.275c0.202-0.044,0.96,0.115,0.801,0.591
		c-0.159,0.476-0.198,0.681-0.559,1.084c-0.361,0.39-0.799,0.997-1.08,1.313c-0.278,0.32-0.635,0.722-0.716,0.997
		c-0.079,0.283,0.04,0.636-0.281,1.112c-0.318,0.492-0.198,0.327-0.596,0.803c-0.401,0.484-0.683,0.846-0.802,1.076
		c-0.119,0.246-0.278,0.521-0.556,1.039c-0.282,0.521-0.639,0.997-0.957,1.473c-0.322,0.484-0.282,0.759-0.679,0.644
		c-0.401-0.123-0.679-0.324-0.838-0.678c-0.159-0.361-0.198-0.681-0.04-0.963c0.159-0.272,0.477-0.555,0.64-0.714
		c0.159-0.165,0.397-0.354,0.516-0.801C151.482,203.402,151.204,201.924,151.204,201.924z"></path>
	<path class="st0" d="M145.375,218.766c-0.358-0.324-0.279-1.033-0.08-1.235c0.198-0.202,0.921-0.246,1.235-0.283
		c0.325-0.042,2.117-0.123,2.756-0.078c0.639,0.037,1.238-0.082,1.64,0c0.397,0.078,0.596-0.044,1.156-0.16
		c0.56-0.115,0.397-0.238,0.878-0.115c0.481,0.115,0.52,0.275,0.199,0.476c-0.322,0.196-1.156,0.795-1.597,0.911
		c-0.436,0.131-0.476,0.086-0.917,0.403c-0.437,0.319-0.357,0.434-0.838,0.681c-0.48,0.238-0.361,0.361-0.758,0.275
		c-0.401-0.073-0.357,0.042-0.799-0.073c-0.437-0.123-0.559-0.123-0.837-0.246c-0.279-0.115-0.639-0.317-1.04-0.432
		C145.975,218.766,145.375,218.766,145.375,218.766z"></path>
</g>
</svg>
